<?xml version="1.0" encoding="utf-8"?>
<!-- Generator: Adobe Illustrator 16.0.0, SVG Export Plug-In . SVG Version: 6.00 Build 0)  -->
<!DOCTYPE svg PUBLIC "-//W3C//DTD SVG 1.1//EN" "http://www.w3.org/Graphics/SVG/1.1/DTD/svg11.dtd">
<svg version="1.1" id="Capa_1" xmlns="http://www.w3.org/2000/svg" xmlns:xlink="http://www.w3.org/1999/xlink" x="0px" y="0px"
	 width="100px" height="100px" viewBox="0 0 100 100" enable-background="new 0 0 100 100" xml:space="preserve">
<g>
	<linearGradient id="SVGID_1_" gradientUnits="userSpaceOnUse" x1="1546.1006" y1="-43.1025" x2="1359.899" y2="143.099">
		<stop  offset="0" style="stop-color:#FF0000"/>
		<stop  offset="1" style="stop-color:#850000"/>
	</linearGradient>
	<path fill="url(#SVGID_1_)" d="M1584.664,49.996c0,72.716-58.952,131.669-131.659,131.669
		c-72.724,0-131.669-58.953-131.669-131.669c0-72.717,58.945-131.661,131.669-131.661
		C1525.712-81.665,1584.664-22.721,1584.664,49.996z"/>
	<path fill="#FFFFFF" d="M1523.495,30.851c0-17.454-14.157-31.613-31.621-31.613h-80.851c-17.457,0-31.606,14.159-31.606,31.613
		v37.62c0,17.465,14.149,31.623,31.606,31.623h80.851c17.464,0,31.621-14.158,31.621-31.623V30.851z M1475.938,52.484
		l-36.248,17.932c-1.425,0.773-6.243-0.256-6.243-1.874v-36.82c0-1.636,4.864-2.664,6.279-1.846l34.708,18.879
		C1475.885,49.583,1477.417,51.684,1475.938,52.484z"/>
</g>
<g>
	<linearGradient id="SVGID_2_" gradientUnits="userSpaceOnUse" x1="562.0996" y1="-43.1021" x2="375.9007" y2="143.0969">
		<stop  offset="0.0011" style="stop-color:#FBE18A"/>
		<stop  offset="0.2094" style="stop-color:#FCBB45"/>
		<stop  offset="0.3765" style="stop-color:#F75274"/>
		<stop  offset="0.5238" style="stop-color:#D53692"/>
		<stop  offset="0.7394" style="stop-color:#8F39CE"/>
		<stop  offset="1" style="stop-color:#5B4FE9"/>
	</linearGradient>
	<path fill="url(#SVGID_2_)" d="M600.664,50c0,72.708-58.952,131.661-131.659,131.661c-72.724,0-131.669-58.953-131.669-131.661
		c0-72.725,58.945-131.66,131.669-131.66C541.712-81.661,600.664-22.725,600.664,50z"/>
	<g>
		<g>
			<path fill="#FFFFFF" d="M509.869,0.192c-5.003,0-9.05,4.045-9.05,9.039c0,5.004,4.047,9.059,9.05,9.059
				c5.004,0,9.049-4.055,9.049-9.059C518.918,4.237,514.873,0.192,509.869,0.192z"/>
			<path fill="#FFFFFF" d="M469.637,11.799c-20.963,0-38.023,17.043-38.023,38.007c0,20.965,17.061,38.026,38.023,38.026
				c20.966,0,38.006-17.061,38.006-38.026C507.643,28.842,490.603,11.799,469.637,11.799z M469.637,74.164
				c-13.437,0-24.358-10.922-24.358-24.358c0-13.419,10.922-24.34,24.358-24.34c13.42,0,24.342,10.921,24.342,24.34
				C493.979,63.242,483.057,74.164,469.637,74.164z"/>
			<path fill="#FFFFFF" d="M499.818,126.998h-61.635c-25.565,0-46.372-20.805-46.372-46.369V18.993
				c0-25.572,20.807-46.37,46.372-46.37h61.635c25.563,0,46.37,20.798,46.37,46.37v61.636
				C546.188,106.193,525.382,126.998,499.818,126.998z M438.184-12.857c-17.563,0-31.844,14.289-31.844,31.85v61.636
				c0,17.561,14.281,31.842,31.844,31.842h61.635c17.552,0,31.851-14.281,31.851-31.842V18.993c0-17.561-14.299-31.85-31.851-31.85
				H438.184z"/>
		</g>
	</g>
</g>
<g>
	<linearGradient id="SVGID_3_" gradientUnits="userSpaceOnUse" x1="16.0615" y1="16.0596" x2="83.9403" y2="83.9384">
		<stop  offset="0" style="stop-color:#4676ED"/>
		<stop  offset="0.1854" style="stop-color:#436DE4"/>
		<stop  offset="0.487" style="stop-color:#3C55CD"/>
		<stop  offset="0.8651" style="stop-color:#302EA8"/>
		<stop  offset="1" style="stop-color:#2B1E99"/>
	</linearGradient>
	<path fill="url(#SVGID_3_)" d="M97.998,50.003c0-26.514-21.487-48.001-47.999-48.001c-26.505,0-47.997,21.487-47.997,48.001
		c0,23.952,17.555,43.81,40.501,47.412V63.871H30.316V50.003h12.187V39.425c0-12.028,7.162-18.672,18.125-18.672
		c5.252,0,10.748,0.937,10.748,0.937v11.812h-6.055c-5.961,0-7.821,3.697-7.821,7.496v9.006h13.31l-2.124,13.868H57.5v33.544
		C80.448,93.813,97.998,73.955,97.998,50.003z"/>
	<path fill="#FFFFFF" d="M68.686,63.871l2.124-13.868H57.5v-9.006c0-3.799,1.86-7.496,7.821-7.496h6.055V21.689
		c0,0-5.496-0.937-10.748-0.937c-10.963,0-18.125,6.644-18.125,18.672v10.578H30.316v13.868h12.187v33.544
		c2.443,0.384,4.948,0.583,7.496,0.583c2.552,0,5.06-0.199,7.501-0.583V63.871H68.686z"/>
</g>
<g>
	<linearGradient id="SVGID_4_" gradientUnits="userSpaceOnUse" x1="1082.1025" y1="-43.1025" x2="895.9008" y2="143.0992">
		<stop  offset="0" style="stop-color:#006EF5"/>
		<stop  offset="0.7753" style="stop-color:#2131AE"/>
		<stop  offset="1" style="stop-color:#2B1E99"/>
	</linearGradient>
	<path fill="url(#SVGID_4_)" d="M1120.664,49.996c0,72.716-58.943,131.669-131.67,131.669c-72.705,0-131.658-58.953-131.658-131.669
		c0-72.717,58.953-131.661,131.658-131.661C1061.721-81.665,1120.664-22.721,1120.664,49.996z"/>
	<path fill="#FFFFFF" d="M996.33,73.651c0,4.008-0.801,7.527-2.4,10.551c-1.609,3.035-3.809,5.576-6.623,7.615
		c-2.805,2.059-6.051,3.615-9.752,4.68c-3.691,1.072-7.641,1.609-11.826,1.609h-45.836V3.229h50.777
		c3.305,0,6.287,0.713,8.951,2.137c2.674,1.426,4.951,3.271,6.824,5.55c1.863,2.269,3.314,4.854,4.344,7.747
		c1.02,2.894,1.531,5.813,1.531,8.75c0,4.635-1.162,8.979-3.465,13.032c-2.322,4.054-5.707,7.063-10.166,9.014
		c5.434,1.609,9.734,4.486,12.891,8.626C994.746,62.228,996.33,67.416,996.33,73.651z M938.336,18.997v23.919h24.586
		c3.121,0,5.768-1.072,7.957-3.209c2.182-2.138,3.273-5.074,3.273-8.819c0-3.65-1.004-6.543-3.01-8.681
		c-2.004-2.138-4.482-3.21-7.42-3.21H938.336z M977.758,70.177c0-1.697-0.291-3.323-0.871-4.881c-0.57-1.556-1.363-2.91-2.33-4.07
		c-0.984-1.16-2.146-2.075-3.482-2.744c-1.338-0.668-2.807-1.002-4.414-1.002h-28.324v24.99h27.393c1.695,0,3.27-0.316,4.746-0.939
		c1.471-0.615,2.744-1.486,3.809-2.604c1.064-1.109,1.908-2.428,2.541-3.939C977.441,73.474,977.758,71.865,977.758,70.177z"/>
	<path fill="#FFFFFF" d="M1036.27,98.106c-5.434,0-10.357-0.934-14.754-2.787c-8.725-3.711-14.879-9.947-18.449-18.705
		c-1.689-4.23-2.523-8.679-2.523-13.34c0-4.836,0.816-9.383,2.453-13.657c3.518-8.873,9.672-15.196,18.449-18.968
		c4.449-1.899,9.436-2.849,14.965-2.849c5.523,0,10.465,0.949,14.818,2.849c14.326,6.243,21.078,20.129,20.465,35.211
		c-0.055,1.037-0.16,1.907-0.336,2.593h-52.428c0.256,2.675,0.896,5.048,1.934,7.122c1.037,2.068,2.375,3.844,4.02,5.303
		c1.635,1.469,3.49,2.596,5.566,3.369c2.076,0.783,4.221,1.17,6.473,1.17c3.447,0,6.709-0.844,9.779-2.523
		c3.059-1.689,5.152-3.904,6.277-6.676l14.889,4.15c-2.506,5.18-6.5,9.428-11.979,12.752
		C1050.412,96.444,1043.869,98.106,1036.27,98.106z M1053.885,57.189c-0.432-5.092-2.313-9.172-5.637-12.232
		c-3.324-3.069-7.352-4.6-12.1-4.6c-2.332,0-4.514,0.413-6.543,1.231c-2.023,0.818-3.816,1.96-5.373,3.43
		c-1.557,1.468-2.824,3.235-3.826,5.311c-0.984,2.066-1.564,4.353-1.74,6.86H1053.885L1053.885,57.189z"/>
	<path fill="#FFFFFF" d="M1013.441,7.732h45.402v11.265h-45.402V7.732z"/>
</g>
<g>
	<linearGradient id="SVGID_5_" gradientUnits="userSpaceOnUse" x1="2029.9219" y1="-42.9238" x2="1844.0786" y2="142.9194">
		<stop  offset="0" style="stop-color:#60FC7C"/>
		<stop  offset="1" style="stop-color:#4AB161"/>
	</linearGradient>
	<path fill="url(#SVGID_5_)" d="M2068.414,49.996c0,72.574-58.838,131.413-131.414,131.413s-131.414-58.839-131.414-131.413
		c0-72.575,58.838-131.405,131.414-131.405S2068.414-22.579,2068.414,49.996z"/>
	<path fill="#FFFFFF" d="M1866.006,124.36l10.953-40.882c-6.197-11.19-9.461-23.732-9.461-36.457c0-41.62,33.859-75.48,75.471-75.48
		c41.629,0,75.486,33.86,75.486,75.48c0,41.617-33.857,75.479-75.486,75.479c-12.49,0-24.83-3.161-35.871-9.146L1866.006,124.36z
		 M1909.133,98.031l2.59,1.544c9.506,5.661,20.301,8.653,31.246,8.653c33.754,0,61.217-27.461,61.217-61.207
		c0-33.757-27.463-61.219-61.217-61.219c-33.748,0-61.209,27.462-61.209,61.219c0,11.146,3.098,22.116,8.951,31.735l1.59,2.607
		l-6.117,22.817L1909.133,98.031z"/>
	<path fill-rule="evenodd" clip-rule="evenodd" fill="#FFFFFF" d="M1971.045,57.517c-3.107-1.859-7.145-3.931-10.805-2.438
		c-2.809,1.147-4.607,5.545-6.416,7.792c-0.938,1.149-2.053,1.324-3.492,0.755c-10.533-4.205-18.607-11.242-24.426-20.933
		c-0.992-1.509-0.816-2.693,0.377-4.089c1.758-2.072,3.967-4.424,4.441-7.205c0.473-2.791-0.834-6.049-1.982-8.532
		c-1.477-3.178-3.125-7.698-6.303-9.497c-2.922-1.65-6.768-0.719-9.375,1.396c-4.492,3.661-6.652,9.39-6.592,15.07
		c0.02,1.615,0.221,3.23,0.598,4.782c0.904,3.749,2.643,7.25,4.592,10.578c1.465,2.509,3.063,4.941,4.783,7.285
		c5.641,7.652,12.646,14.305,20.775,19.281c4.053,2.483,8.424,4.671,12.953,6.161c5.072,1.678,9.604,3.424,15.078,2.379
		c5.742-1.089,11.393-4.635,13.674-10.164c0.676-1.641,1.018-3.467,0.631-5.194C1978.785,61.369,1973.939,59.247,1971.045,57.517z"
		/>
</g>
</svg>
