<?xml version="1.0" encoding="utf-8"?>
<!-- Generator: Adobe Illustrator 16.0.0, SVG Export Plug-In . SVG Version: 6.00 Build 0)  -->
<!DOCTYPE svg PUBLIC "-//W3C//DTD SVG 1.1//EN" "http://www.w3.org/Graphics/SVG/1.1/DTD/svg11.dtd">
<svg version="1.1" id="Capa_1" xmlns="http://www.w3.org/2000/svg" xmlns:xlink="http://www.w3.org/1999/xlink" x="0px" y="0px"
	 width="300px" height="300px" viewBox="0 0 300 300" enable-background="new 0 0 300 300" xml:space="preserve">
<g>
	<linearGradient id="SVGID_1_" gradientUnits="userSpaceOnUse" x1="-240.8994" y1="56.8975" x2="-427.1009" y2="243.099">
		<stop  offset="0" style="stop-color:#FF0000"/>
		<stop  offset="1" style="stop-color:#850000"/>
	</linearGradient>
	<path fill="url(#SVGID_1_)" d="M-202.336,149.996c0,72.716-58.952,131.669-131.659,131.669
		c-72.724,0-131.669-58.953-131.669-131.669c0-72.717,58.945-131.661,131.669-131.661
		C-261.288,18.335-202.336,77.279-202.336,149.996z"/>
	<path fill="#FFFFFF" d="M-263.505,130.851c0-17.454-14.157-31.613-31.621-31.613h-80.851c-17.457,0-31.606,14.159-31.606,31.613
		v37.62c0,17.465,14.149,31.623,31.606,31.623h80.851c17.464,0,31.621-14.158,31.621-31.623V130.851z M-311.062,152.484
		l-36.248,17.932c-1.425,0.773-6.243-0.256-6.243-1.874v-36.82c0-1.636,4.864-2.664,6.279-1.846l34.708,18.879
		C-311.115,149.583-309.583,151.684-311.062,152.484z"/>
</g>
<g>
	<linearGradient id="SVGID_2_" gradientUnits="userSpaceOnUse" x1="-1224.9004" y1="56.8979" x2="-1411.0994" y2="243.0969">
		<stop  offset="0.0011" style="stop-color:#FBE18A"/>
		<stop  offset="0.2094" style="stop-color:#FCBB45"/>
		<stop  offset="0.3765" style="stop-color:#F75274"/>
		<stop  offset="0.5238" style="stop-color:#D53692"/>
		<stop  offset="0.7394" style="stop-color:#8F39CE"/>
		<stop  offset="1" style="stop-color:#5B4FE9"/>
	</linearGradient>
	<path fill="url(#SVGID_2_)" d="M-1186.336,150c0,72.708-58.952,131.661-131.659,131.661c-72.724,0-131.669-58.953-131.669-131.661
		c0-72.725,58.945-131.66,131.669-131.66C-1245.288,18.339-1186.336,77.275-1186.336,150z"/>
	<g>
		<g>
			<path fill="#FFFFFF" d="M-1277.131,100.192c-5.003,0-9.05,4.045-9.05,9.039c0,5.004,4.047,9.059,9.05,9.059
				c5.004,0,9.049-4.055,9.049-9.059C-1268.082,104.237-1272.127,100.192-1277.131,100.192z"/>
			<path fill="#FFFFFF" d="M-1317.363,111.799c-20.963,0-38.023,17.043-38.023,38.007c0,20.965,17.061,38.026,38.023,38.026
				c20.966,0,38.006-17.061,38.006-38.026C-1279.357,128.842-1296.397,111.799-1317.363,111.799z M-1317.363,174.164
				c-13.437,0-24.358-10.922-24.358-24.358c0-13.419,10.922-24.34,24.358-24.34c13.42,0,24.342,10.921,24.342,24.34
				C-1293.021,163.242-1303.943,174.164-1317.363,174.164z"/>
			<path fill="#FFFFFF" d="M-1287.182,226.998h-61.635c-25.565,0-46.372-20.805-46.372-46.369v-61.636
				c0-25.572,20.807-46.37,46.372-46.37h61.635c25.563,0,46.37,20.798,46.37,46.37v61.636
				C-1240.812,206.193-1261.618,226.998-1287.182,226.998z M-1348.816,87.143c-17.563,0-31.844,14.289-31.844,31.85v61.636
				c0,17.561,14.281,31.842,31.844,31.842h61.635c17.552,0,31.851-14.281,31.851-31.842v-61.636c0-17.561-14.299-31.85-31.851-31.85
				H-1348.816z"/>
		</g>
	</g>
</g>
<g>
	<linearGradient id="SVGID_3_" gradientUnits="userSpaceOnUse" x1="-1830.0977" y1="56.8965" x2="-1643.8979" y2="243.0962">
		<stop  offset="0" style="stop-color:#4676ED"/>
		<stop  offset="0.1854" style="stop-color:#436DE4"/>
		<stop  offset="0.487" style="stop-color:#3C55CD"/>
		<stop  offset="0.8651" style="stop-color:#302EA8"/>
		<stop  offset="1" style="stop-color:#2B1E99"/>
	</linearGradient>
	<path fill="url(#SVGID_3_)" d="M-1605.335,150.006c0-72.726-58.944-131.671-131.67-131.671c-72.707,0-131.66,58.945-131.66,131.671
		c0,65.706,48.155,120.175,111.101,130.06v-92.01h-33.435v-38.05h33.435v-29.021c0-32.993,19.645-51.214,49.719-51.214
		c14.404,0,29.477,2.567,29.477,2.567v32.396h-16.603c-16.356,0-21.456,10.148-21.456,20.569v24.702h36.511l-5.829,38.05h-30.682
		v92.01C-1653.48,270.181-1605.335,215.712-1605.335,150.006z"/>
	<path fill="#FFFFFF" d="M-1685.745,188.056l5.829-38.05h-36.511v-24.702c0-10.421,5.1-20.569,21.456-20.569h16.603V72.339
		c0,0-15.072-2.567-29.477-2.567c-30.074,0-49.719,18.221-49.719,51.214v29.021h-33.435v38.05h33.435v92.01
		c6.7,1.055,13.568,1.6,20.559,1.6c7,0,13.877-0.545,20.578-1.6v-92.01H-1685.745z"/>
</g>
<g>
	<linearGradient id="SVGID_4_" gradientUnits="userSpaceOnUse" x1="-704.8975" y1="56.8975" x2="-891.0992" y2="243.0992">
		<stop  offset="0" style="stop-color:#006EF5"/>
		<stop  offset="0.7753" style="stop-color:#2131AE"/>
		<stop  offset="1" style="stop-color:#2B1E99"/>
	</linearGradient>
	<path fill="url(#SVGID_4_)" d="M-666.336,149.996c0,72.716-58.943,131.669-131.67,131.669
		c-72.705,0-131.658-58.953-131.658-131.669c0-72.717,58.953-131.661,131.658-131.661
		C-725.279,18.335-666.336,77.279-666.336,149.996z"/>
	<path fill="#FFFFFF" d="M-790.67,173.651c0,4.008-0.801,7.527-2.4,10.551c-1.609,3.035-3.809,5.576-6.623,7.615
		c-2.805,2.059-6.051,3.615-9.752,4.68c-3.691,1.072-7.641,1.609-11.826,1.609h-45.836v-94.877h50.777
		c3.305,0,6.287,0.713,8.951,2.137c2.674,1.426,4.951,3.271,6.824,5.55c1.863,2.269,3.314,4.854,4.344,7.747
		c1.02,2.894,1.531,5.813,1.531,8.75c0,4.635-1.162,8.979-3.465,13.032c-2.322,4.054-5.707,7.063-10.166,9.014
		c5.434,1.609,9.734,4.486,12.891,8.626C-792.254,162.228-790.67,167.416-790.67,173.651z M-848.664,118.997v23.919h24.586
		c3.121,0,5.768-1.072,7.957-3.209c2.182-2.138,3.273-5.074,3.273-8.819c0-3.65-1.004-6.543-3.01-8.681
		c-2.004-2.138-4.482-3.21-7.42-3.21H-848.664z M-809.242,170.177c0-1.697-0.291-3.323-0.871-4.881
		c-0.57-1.556-1.363-2.91-2.33-4.07c-0.984-1.16-2.146-2.075-3.482-2.744c-1.338-0.668-2.807-1.002-4.414-1.002h-28.324v24.99
		h27.393c1.695,0,3.27-0.316,4.746-0.939c1.471-0.615,2.744-1.486,3.809-2.604c1.064-1.109,1.908-2.428,2.541-3.939
		C-809.559,173.474-809.242,171.865-809.242,170.177z"/>
	<path fill="#FFFFFF" d="M-750.73,198.106c-5.434,0-10.357-0.934-14.754-2.787c-8.725-3.711-14.879-9.947-18.449-18.705
		c-1.689-4.23-2.523-8.679-2.523-13.34c0-4.836,0.816-9.383,2.453-13.657c3.518-8.873,9.672-15.196,18.449-18.968
		c4.449-1.899,9.436-2.849,14.965-2.849c5.523,0,10.465,0.949,14.818,2.849c14.326,6.243,21.078,20.129,20.465,35.211
		c-0.055,1.037-0.16,1.907-0.336,2.593h-52.428c0.256,2.675,0.896,5.048,1.934,7.122c1.037,2.068,2.375,3.844,4.02,5.303
		c1.635,1.469,3.49,2.596,5.566,3.369c2.076,0.783,4.221,1.17,6.473,1.17c3.447,0,6.709-0.844,9.779-2.523
		c3.059-1.689,5.152-3.904,6.277-6.676l14.889,4.15c-2.506,5.18-6.5,9.428-11.979,12.752
		C-736.588,196.444-743.131,198.106-750.73,198.106z M-733.115,157.189c-0.432-5.092-2.313-9.172-5.637-12.232
		c-3.324-3.069-7.352-4.6-12.1-4.6c-2.332,0-4.514,0.413-6.543,1.231c-2.023,0.818-3.816,1.96-5.373,3.43
		c-1.557,1.468-2.824,3.235-3.826,5.311c-0.984,2.066-1.564,4.353-1.74,6.86H-733.115L-733.115,157.189z"/>
	<path fill="#FFFFFF" d="M-773.559,107.732h45.402v11.265h-45.402V107.732z"/>
</g>
<g>
	<linearGradient id="SVGID_5_" gradientUnits="userSpaceOnUse" x1="243.0977" y1="56.9004" x2="56.8985" y2="243.0996">
		<stop  offset="0" style="stop-color:#EFF0F0"/>
		<stop  offset="1" style="stop-color:#CFD1D2"/>
	</linearGradient>
	<path fill="url(#SVGID_5_)" d="M281.665,150c0,72.716-58.954,131.66-131.669,131.66C77.28,281.66,18.335,222.716,18.335,150
		S77.28,18.34,149.996,18.34C222.711,18.34,281.665,77.284,281.665,150z"/>
</g>
<g>
	<g>
		<path fill="#FFFFFF" d="M228.807,95.807c1.742,4.241,0.414,9.271-3.482,12.042l-75.186,53.366l-0.141-0.191l-0.135,0.191
			l-75.186-53.366c-3.898-2.771-5.227-7.801-3.484-12.039c-0.598,1.325-0.939,2.797-0.939,4.348v99.688
			c0,5.857,4.75,10.603,10.604,10.603h138.285c5.855,0,10.604-4.745,10.604-10.603v-99.688
			C229.746,98.606,229.406,97.135,228.807,95.807z"/>
	</g>
	<path fill="#D72B27" d="M80.857,89.553c-5.854,0-10.604,4.749-10.604,10.604v99.688c0,5.857,4.75,10.603,10.604,10.603h9.553
		V89.553H80.857z"/>
	<path fill="#D54B3D" d="M80.857,208.969c-5.031,0-9.123-4.093-9.123-9.124v-99.688c0-5.03,4.092-9.123,9.123-9.123h8.07v117.935
		H80.857z"/>
	<path fill="#D72B27" d="M219.143,89.553h-9.551v120.895h9.551c5.855,0,10.604-4.745,10.604-10.603v-99.688
		C229.746,94.302,224.998,89.553,219.143,89.553z"/>
	<path fill="#D54B3D" d="M211.074,208.969V91.034h8.068c5.031,0,9.123,4.093,9.123,9.123v99.688c0,5.031-4.092,9.124-9.123,9.124
		H211.074z"/>
	<path fill="#D72B27" d="M227.705,93.798c-3.217-4.536-9.512-5.604-14.047-2.383l-63.66,45.185L86.342,91.415
		c-4.535-3.221-10.826-2.153-14.047,2.383l0,0c-3.221,4.54-2.154,10.83,2.383,14.051l75.186,53.366l0.135-0.191l0.141,0.191
		l75.186-53.366C229.859,104.628,230.926,98.338,227.705,93.798z"/>
	<path fill="#D54B3D" d="M149.998,158.466l-0.482,0.685L75.531,106.64c-3.861-2.741-4.773-8.119-2.029-11.983
		c1.607-2.27,4.232-3.622,7.018-3.622c1.785,0,3.504,0.547,4.965,1.588l64.514,45.791l64.518-45.791
		c1.463-1.041,3.18-1.588,4.965-1.588c2.787,0,5.412,1.353,7.02,3.622c1.328,1.873,1.85,4.149,1.469,6.412
		c-0.385,2.264-1.633,4.242-3.5,5.571l-73.984,52.511L149.998,158.466z"/>
	<path fill="#FFFFFF" d="M86.342,91.415l63.656,45.185l63.66-45.185c1.697-1.206,3.635-1.81,5.566-1.855
		c-0.027-0.003-0.053-0.007-0.082-0.007H80.857c-0.027,0-0.057,0.004-0.082,0.007C82.707,89.605,84.646,90.209,86.342,91.415z"/>
	<path fill="#E4E5E6" d="M177.225,210.447h41.918c5.855,0,10.604-4.745,10.604-10.603v-99.267l-0.238,0.014
		c-0.264,2.81-1.699,5.49-4.184,7.257l-75.186,53.366l-0.141-0.191l-0.135,0.191l-72.664-51.58L177.225,210.447z"/>
	<polygon fill="#EFF0F0" points="150.139,161.215 90.41,210.447 90.41,119.014 	"/>
</g>
</svg>
