<?xml version="1.0" encoding="utf-8"?>
<!-- Generator: Adobe Illustrator 16.0.0, SVG Export Plug-In . SVG Version: 6.00 Build 0)  -->
<!DOCTYPE svg PUBLIC "-//W3C//DTD SVG 1.1//EN" "http://www.w3.org/Graphics/SVG/1.1/DTD/svg11.dtd">
<svg version="1.1" id="Capa_1" xmlns="http://www.w3.org/2000/svg" xmlns:xlink="http://www.w3.org/1999/xlink" x="0px" y="0px"
	 width="110px" height="110px" viewBox="0 0 110 110" enable-background="new 0 0 110 110" xml:space="preserve">
<g>
	<linearGradient id="SVGID_1_" gradientUnits="userSpaceOnUse" x1="160.9492" y1="-140.9492" x2="85.051" y2="-65.051">
		<stop  offset="0" style="stop-color:#FF0000"/>
		<stop  offset="1" style="stop-color:#850000"/>
	</linearGradient>
	<path fill="url(#SVGID_1_)" d="M176.668-103.002c0,29.641-24.029,53.67-53.666,53.67c-29.644,0-53.67-24.029-53.67-53.67
		s24.026-53.666,53.67-53.666C152.639-156.668,176.668-132.643,176.668-103.002z"/>
	<path fill="#FFFFFF" d="M151.735-110.805c0-7.115-5.771-12.887-12.89-12.887H105.89c-7.115,0-12.883,5.771-12.883,12.887v15.334
		c0,7.119,5.768,12.889,12.883,12.889h32.956c7.118,0,12.89-5.77,12.89-12.889V-110.805z M132.351-101.986l-14.775,7.309
		c-0.581,0.314-2.545-0.105-2.545-0.764v-15.01c0-0.666,1.982-1.086,2.56-0.752l14.147,7.695
		C132.328-103.17,132.952-102.314,132.351-101.986z"/>
</g>
<g>
	<linearGradient id="SVGID_2_" gradientUnits="userSpaceOnUse" x1="161.3994" y1="-291.3994" x2="84.6019" y2="-214.6019">
		<stop  offset="0.0011" style="stop-color:#FBE18A"/>
		<stop  offset="0.2094" style="stop-color:#FCBB45"/>
		<stop  offset="0.3765" style="stop-color:#F75274"/>
		<stop  offset="0.5238" style="stop-color:#D53692"/>
		<stop  offset="0.7394" style="stop-color:#8F39CE"/>
		<stop  offset="1" style="stop-color:#5B4FE9"/>
	</linearGradient>
	<path fill="url(#SVGID_2_)" d="M177.305-253c0,29.988-24.314,54.303-54.302,54.303c-29.995,0-54.308-24.314-54.308-54.303
		c0-29.995,24.313-54.303,54.308-54.303C152.99-307.303,177.305-282.995,177.305-253z"/>
	<g>
		<g>
			<path fill="#FFFFFF" d="M139.857-273.543c-2.063,0-3.732,1.668-3.732,3.728c0,2.064,1.669,3.736,3.732,3.736
				s3.732-1.672,3.732-3.736C143.59-271.875,141.921-273.543,139.857-273.543z"/>
			<path fill="#FFFFFF" d="M123.263-268.756c-8.646,0-15.683,7.029-15.683,15.677c0,8.646,7.037,15.683,15.683,15.683
				c8.647,0,15.676-7.036,15.676-15.683C138.938-261.727,131.91-268.756,123.263-268.756z M123.263-243.033
				c-5.542,0-10.046-4.505-10.046-10.046c0-5.535,4.504-10.039,10.046-10.039c5.535,0,10.041,4.504,10.041,10.039
				C133.304-247.538,128.798-243.033,123.263-243.033z"/>
			<path fill="#FFFFFF" d="M135.712-221.242h-25.421c-10.545,0-19.127-8.58-19.127-19.125v-25.422
				c0-10.547,8.582-19.125,19.127-19.125h25.421c10.544,0,19.125,8.578,19.125,19.125v25.422
				C154.837-229.822,146.256-221.242,135.712-221.242z M110.291-278.926c-7.244,0-13.135,5.895-13.135,13.137v25.422
				c0,7.243,5.891,13.134,13.135,13.134h25.421c7.24,0,13.138-5.891,13.138-13.134v-25.422c0-7.242-5.897-13.137-13.138-13.137
				H110.291z"/>
		</g>
	</g>
</g>
<g>
	<linearGradient id="SVGID_3_" gradientUnits="userSpaceOnUse" x1="-75.1802" y1="-291.1831" x2="1.1839" y2="-214.819">
		<stop  offset="0" style="stop-color:#4676ED"/>
		<stop  offset="0.1854" style="stop-color:#436DE4"/>
		<stop  offset="0.487" style="stop-color:#3C55CD"/>
		<stop  offset="0.8651" style="stop-color:#302EA8"/>
		<stop  offset="1" style="stop-color:#2B1E99"/>
	</linearGradient>
	<path fill="url(#SVGID_3_)" d="M16.998-252.997c0-29.828-24.173-54.001-53.999-54.001c-29.817,0-53.997,24.173-53.997,54.001
		c0,26.947,19.75,49.286,45.563,53.339v-37.737h-13.71v-15.602h13.71v-11.9c0-13.532,8.058-21.006,20.392-21.006
		c5.907,0,12.091,1.054,12.091,1.054v13.288h-6.812c-6.706,0-8.799,4.159-8.799,8.434v10.131h14.974l-2.391,15.602h-12.583v37.737
		C-2.745-203.711,16.998-226.05,16.998-252.997z"/>
	<path fill="#FFFFFF" d="M-15.979-237.396l2.391-15.602h-14.974v-10.131c0-4.274,2.093-8.434,8.799-8.434h6.812v-13.288
		c0,0-6.184-1.054-12.091-1.054c-12.334,0-20.392,7.474-20.392,21.006v11.9h-13.71v15.602h13.71v37.737
		c2.749,0.432,5.567,0.656,8.434,0.656c2.87,0,5.692-0.225,8.438-0.656v-37.737H-15.979z"/>
</g>
<g>
	<linearGradient id="SVGID_4_" gradientUnits="userSpaceOnUse" x1="0.5664" y1="-140.5645" x2="-74.5635" y2="-65.4345">
		<stop  offset="0" style="stop-color:#006EF5"/>
		<stop  offset="0.7753" style="stop-color:#2131AE"/>
		<stop  offset="1" style="stop-color:#2B1E99"/>
	</linearGradient>
	<path fill="url(#SVGID_4_)" d="M16.125-103.002c0,29.34-23.782,53.127-53.128,53.127c-29.335,0-53.122-23.787-53.122-53.127
		s23.787-53.123,53.122-53.123C-7.657-156.125,16.125-132.342,16.125-103.002z"/>
	<path fill="#FFFFFF" d="M-34.043-93.457c0,1.617-0.323,3.037-0.968,4.258c-0.649,1.225-1.537,2.25-2.672,3.072
		c-1.132,0.83-2.441,1.459-3.935,1.889c-1.489,0.432-3.083,0.648-4.771,0.648h-18.494v-38.281h20.488
		c1.333,0,2.537,0.287,3.612,0.863c1.079,0.574,1.998,1.318,2.753,2.238c0.751,0.914,1.337,1.957,1.752,3.125
		c0.412,1.168,0.618,2.346,0.618,3.531c0,1.869-0.469,3.623-1.398,5.258c-0.937,1.637-2.303,2.85-4.102,3.637
		c2.192,0.65,3.928,1.811,5.201,3.48C-34.682-98.066-34.043-95.973-34.043-93.457z M-57.442-115.51v9.652h9.92
		c1.259,0,2.327-0.434,3.211-1.295c0.88-0.863,1.321-2.049,1.321-3.559c0-1.473-0.405-2.641-1.215-3.504
		c-0.808-0.861-1.809-1.295-2.994-1.295H-57.442z M-41.536-94.859c0-0.684-0.118-1.34-0.352-1.969
		c-0.23-0.629-0.55-1.174-0.94-1.643c-0.397-0.469-0.866-0.838-1.405-1.107c-0.541-0.27-1.133-0.404-1.782-0.404h-11.428v10.084
		h11.053c0.684,0,1.319-0.129,1.915-0.379c0.593-0.25,1.107-0.6,1.537-1.051c0.43-0.447,0.77-0.98,1.025-1.59
		C-41.664-93.529-41.536-94.178-41.536-94.859z"/>
	<path fill="#FFFFFF" d="M-17.928-83.59c-2.191,0-4.178-0.377-5.953-1.125c-3.519-1.496-6.003-4.012-7.443-7.547
		c-0.682-1.707-1.019-3.502-1.019-5.383c0-1.951,0.329-3.785,0.989-5.51c1.42-3.58,3.903-6.131,7.445-7.652
		c1.794-0.768,3.807-1.15,6.037-1.15c2.229,0,4.224,0.383,5.979,1.15c5.78,2.518,8.505,8.121,8.258,14.207
		c-0.023,0.418-0.064,0.768-0.136,1.045h-21.154c0.103,1.08,0.361,2.037,0.78,2.873c0.419,0.834,0.958,1.551,1.622,2.141
		c0.66,0.592,1.408,1.047,2.245,1.359c0.838,0.316,1.704,0.473,2.612,0.473c1.391,0,2.707-0.342,3.945-1.02
		c1.234-0.682,2.079-1.574,2.534-2.693l6.007,1.676c-1.011,2.09-2.624,3.803-4.834,5.145C-12.221-84.26-14.861-83.59-17.928-83.59z
		 M-10.82-100.1c-0.173-2.055-0.933-3.699-2.273-4.936c-1.343-1.238-2.967-1.855-4.883-1.855c-0.941,0-1.82,0.166-2.64,0.498
		c-0.816,0.33-1.54,0.789-2.168,1.383c-0.628,0.592-1.14,1.305-1.544,2.143c-0.397,0.834-0.631,1.756-0.702,2.768H-10.82
		L-10.82-100.1z"/>
	<path fill="#FFFFFF" d="M-27.138-120.055h18.319v4.545h-18.319V-120.055z"/>
</g>
<g>
	<linearGradient id="SVGID_5_" gradientUnits="userSpaceOnUse" x1="92.5674" y1="17.4326" x2="17.434" y2="92.566">
		<stop  offset="0" style="stop-color:#60FC7C"/>
		<stop  offset="1" style="stop-color:#4AB161"/>
	</linearGradient>
	<circle fill="url(#SVGID_5_)" cx="55" cy="54.998" r="53.129"/>
	<path fill="#FFFFFF" d="M26.297,85.062l4.43-16.527c-2.506-4.523-3.824-9.594-3.824-14.739c0-16.826,13.688-30.514,30.51-30.514
		c16.83,0,30.518,13.688,30.518,30.514S74.242,84.311,57.412,84.311c-5.049,0-10.039-1.277-14.502-3.697L26.297,85.062z
		 M43.734,74.418l1.045,0.623c3.844,2.289,8.207,3.499,12.633,3.499c13.648,0,24.75-11.102,24.75-24.745
		c0-13.646-11.102-24.748-24.75-24.748c-13.643,0-24.744,11.102-24.744,24.748c0,4.507,1.252,8.942,3.619,12.83l0.641,1.055
		l-2.473,9.226L43.734,74.418z"/>
	<path fill-rule="evenodd" clip-rule="evenodd" fill="#FFFFFF" d="M68.764,58.039c-1.256-0.753-2.889-1.59-4.369-0.985
		c-1.135,0.464-1.863,2.241-2.594,3.149c-0.377,0.464-0.828,0.535-1.412,0.305c-4.258-1.699-7.521-4.544-9.873-8.462
		c-0.402-0.61-0.33-1.089,0.15-1.654c0.713-0.837,1.605-1.788,1.797-2.911c0.189-1.129-0.338-2.446-0.801-3.451
		c-0.6-1.284-1.264-3.111-2.549-3.839c-1.182-0.666-2.736-0.291-3.791,0.565c-1.814,1.479-2.689,3.797-2.664,6.092
		c0.008,0.652,0.09,1.306,0.242,1.933c0.365,1.516,1.066,2.933,1.855,4.276c0.592,1.016,1.238,1.998,1.936,2.945
		c2.279,3.095,5.111,5.783,8.398,7.796c1.637,1.005,3.404,1.888,5.234,2.49c2.053,0.679,3.885,1.385,6.098,0.962
		c2.32-0.44,4.607-1.873,5.527-4.108c0.273-0.664,0.41-1.402,0.256-2.1C71.893,59.597,69.934,58.737,68.764,58.039z"/>
</g>
</svg>
