<?xml version="1.0" encoding="utf-8"?>
<!-- Generator: Adobe Illustrator 16.0.0, SVG Export Plug-In . SVG Version: 6.00 Build 0)  -->
<!DOCTYPE svg PUBLIC "-//W3C//DTD SVG 1.1//EN" "http://www.w3.org/Graphics/SVG/1.1/DTD/svg11.dtd">
<svg version="1.1" id="Capa_1" xmlns="http://www.w3.org/2000/svg" xmlns:xlink="http://www.w3.org/1999/xlink" x="0px" y="0px"
	 width="571px" height="521.823px" viewBox="0 0 571 521.823" enable-background="new 0 0 571 521.823" xml:space="preserve">
<g>
	<g>
		<linearGradient id="SVGID_1_" gradientUnits="userSpaceOnUse" x1="93.2935" y1="267.3105" x2="477.707" y2="267.3105">
			<stop  offset="0" style="stop-color:#B00A0C"/>
			<stop  offset="0.5122" style="stop-color:#E0210B"/>
			<stop  offset="1" style="stop-color:#E07024"/>
		</linearGradient>
		<polygon fill="url(#SVGID_1_)" points="124.982,22.386 119.874,32.088 145.686,168.472 93.293,306.552 153.581,367.676 
			157.673,338.043 185.763,392.706 189.271,372.783 193.424,376.868 221.005,479.544 233.267,498.44 265.448,512.234 
			284.262,498.052 286.706,498.052 305.413,511.595 348.202,494.604 379.691,371.76 386.159,395.939 414.765,338.395 416.467,370.4 
			477.707,304.382 430.77,166.437 451.885,29.871 446.435,22.386 346.319,121.135 285.507,103.43 229.174,121.135 		"/>
		<path fill="#FFFFFF" d="M302.998,449.789c0,9.651-7.834,17.484-17.491,17.484c-9.673,0-17.5-7.833-17.5-17.484
			c0-9.663,7.827-17.498,17.5-17.498C295.164,432.291,302.998,440.126,302.998,449.789z"/>
	</g>
	<g>
		<path d="M423.922,355.209l-3.21-42.971l-32.729,65.147l-8.245-18.435l-39.1,124.493l-33.252,20.979l-20.681-6.371
			c5.39-6.362,27.014-32.828,27.014-47.421c0-15.577-12.635-28.211-28.213-28.211c-15.586,0-28.213,12.634-28.213,28.211
			c0,15.634,21.517,41.211,26.968,47.421l-20.65,6.371l-33.245-20.979L191.26,358.951l-8.236,18.435l-32.737-65.147l-3.212,42.971
			l-53.781-50.827l66.353,81.097l1.155-29.063l26.419,53.622l3.994-30.366l25.472,120.348l50.773,17.741l17.272-19.238
			c0.456,0.318,1.07,0.304,1.526-0.015l17.271,19.253l50.783-17.741l25.472-120.348l4,30.366l26.413-53.622l1.146,29.063
			l66.363-81.097L423.922,355.209z M268.136,449.479c0-9.596,7.774-17.37,17.371-17.37c9.581,0,17.355,7.774,17.355,17.37
			c0,9.581-7.774,17.355-17.355,17.355C275.91,466.835,268.136,459.061,268.136,449.479z"/>
		<polygon points="125.423,28.657 223.77,131.71 285.491,107.188 347.229,131.71 445.575,28.657 419.133,167.969 477.707,304.382 
			437.845,166.513 455.686,28.201 446.926,16.252 335.279,108.084 285.491,100.006 235.726,108.084 124.072,16.252 115.318,28.201 
			133.159,166.513 93.293,304.382 155.457,167.969 		"/>
	</g>
	<path fill="#FFFFFF" d="M392.778,276.753l-52.634,19.095c0,0.015,0.018,0.029,0.018,0.047l-19.323,91.072l27.831-79.047
		c7.397,6.072,17.707,8.198,27.332,4.698C390.541,307.341,398.053,291.293,392.778,276.753z"/>
	<path fill="#FFFFFF" d="M250.166,386.967L230.845,295.9v-0.006l-52.635-19.101c-5.276,14.545,2.239,30.603,16.771,35.871
		c9.641,3.5,19.966,1.356,27.346-4.716L250.166,386.967z"/>
</g>
</svg>
