<?xml version="1.0" encoding="utf-8"?>
<!-- Generator: Adobe Illustrator 16.0.0, SVG Export Plug-In . SVG Version: 6.00 Build 0)  -->
<!DOCTYPE svg PUBLIC "-//W3C//DTD SVG 1.1//EN" "http://www.w3.org/Graphics/SVG/1.1/DTD/svg11.dtd">
<svg version="1.1" id="Capa_1" xmlns="http://www.w3.org/2000/svg" xmlns:xlink="http://www.w3.org/1999/xlink" x="0px" y="0px"
	 width="83.333px" height="90px" viewBox="0 0 83.333 90" enable-background="new 0 0 83.333 90" xml:space="preserve">
<g>
	<path fill="#FBD015" d="M294.082-60.26h31.914c-1.011-23.959-20.746-43.074-44.952-43.074
		C293.115-103.333,293.737-82.1,294.082-60.26z"/>
	<path fill="#21428C" d="M294.082-36.637h26.389c3.549-6.435,5.574-13.828,5.574-21.697c0-0.645-0.021-1.287-0.048-1.926h-29.85
		C296.275-52.111,295.585-43.883,294.082-36.637z"/>
	<g>
		<path fill="#CD202A" d="M279.604-13.359c-0.115-0.003-0.231-0.008-0.347-0.013C279.373-13.367,279.488-13.362,279.604-13.359z"/>
		<path fill="#CD202A" d="M281.043-13.334c16.983,0,31.765-9.412,39.426-23.302h-27.336C290.37-23.32,289.32-13.334,281.043-13.334z
			"/>
	</g>
	<path fill="#FFFFFF" d="M281.043-13.334c-0.482,0-0.962-0.01-1.439-0.025C280.083-13.344,280.564-13.334,281.043-13.334z"/>
	<path fill="#FCD73E" d="M236.093-60.26h63.573c-0.344-21.84-6.551-43.074-18.622-43.074
		C256.838-103.333,237.103-84.219,236.093-60.26z"/>
	<path fill="#1D4F95" d="M299.666-60.26h-63.573c-0.027,0.64-0.048,1.281-0.048,1.926c0,7.869,2.025,15.262,5.574,21.697h55.982
		C299.105-43.883,299.795-52.111,299.666-60.26z"/>
	<path fill="#D11F3E" d="M279.257-13.372c0.115,0.004,0.23,0.01,0.346,0.013c0.479,0.016,0.958,0.025,1.439,0.025
		c8.277,0,13.793-9.986,16.557-23.303h-55.981C249.009-23.236,263.029-14.006,279.257-13.372z"/>
</g>
<g>
	<g>
		<g>
			<defs>
				<rect id="SVGID_1_" x="42.333" y="26" width="19" height="39"/>
			</defs>
			<clipPath id="SVGID_2_">
				<use xlink:href="#SVGID_1_"  overflow="visible"/>
			</clipPath>
			<g clip-path="url(#SVGID_2_)">
				<path fill="#FBD015" d="M46.558,43.396h13.944c-0.441-10.469-9.065-18.821-19.642-18.821
					C46.135,24.575,46.408,33.853,46.558,43.396z"/>
				<path fill="#21428C" d="M46.558,53.719h11.53c1.551-2.813,2.436-6.043,2.436-9.481c0-0.282-0.01-0.563-0.021-0.842H47.46
					C47.516,46.956,47.215,50.552,46.558,53.719z"/>
				<g>
					<path fill="#CD202A" d="M40.232,63.889c-0.051,0-0.101-0.004-0.151-0.005C40.13,63.885,40.181,63.889,40.232,63.889z"/>
					<path fill="#CD202A" d="M40.861,63.9c7.421,0,13.879-4.112,17.228-10.181H46.143C44.936,59.538,44.477,63.9,40.861,63.9z"/>
				</g>
				<path fill="#FFFFFF" d="M40.861,63.9c-0.211,0-0.42-0.005-0.629-0.012C40.442,63.896,40.652,63.9,40.861,63.9z"/>
				<path fill="#FCD73E" d="M21.22,43.396h27.778c-0.151-9.543-2.863-18.821-8.138-18.821C30.284,24.575,21.662,32.927,21.22,43.396
					z"/>
				<path fill="#1D4F95" d="M48.999,43.396H21.22c-0.012,0.279-0.021,0.56-0.021,0.842c0,3.438,0.885,6.668,2.437,9.481h24.461
					C48.753,50.552,49.054,46.956,48.999,43.396z"/>
				<path fill="#D11F3E" d="M40.081,63.884c0.05,0.001,0.101,0.005,0.151,0.005c0.209,0.007,0.418,0.012,0.629,0.012
					c3.616,0,6.026-4.362,7.234-10.182H23.633C26.864,59.573,32.99,63.606,40.081,63.884z"/>
			</g>
		</g>
		<g>
			<defs>
				<rect id="SVGID_3_" x="22.333" y="26" width="20" height="39"/>
			</defs>
			<clipPath id="SVGID_4_">
				<use xlink:href="#SVGID_3_"  overflow="visible"/>
			</clipPath>
			<g clip-path="url(#SVGID_4_)">
				<circle fill="#F0F0F0" cx="41.042" cy="44.238" r="19.663"/>
				<g>
					<path fill="#D80027" d="M40.187,44.237h20.518c0-1.774-0.236-3.493-0.677-5.128H40.187V44.237z"/>
					<path fill="#D80027" d="M40.187,33.979h17.632c-1.204-1.963-2.743-3.7-4.537-5.129H40.187V33.979z"/>
					<path fill="#D80027" d="M41.042,63.9c4.628,0,8.881-1.601,12.24-4.274H28.802C32.161,62.3,36.415,63.9,41.042,63.9z"/>
					<path fill="#D80027" d="M24.265,54.496h33.554c0.966-1.577,1.716-3.301,2.209-5.129H22.056
						C22.549,51.195,23.298,52.919,24.265,54.496z"/>
				</g>
				<path fill="#0052B4" d="M30.487,27.646h1.793l-1.667,1.21l0.637,1.96l-1.667-1.211l-1.667,1.211l0.551-1.693
					c-1.468,1.223-2.754,2.655-3.814,4.25h0.575l-1.062,0.771C24,34.419,23.841,34.7,23.69,34.984l0.506,1.559l-0.944-0.687
					c-0.235,0.498-0.45,1.007-0.644,1.527l0.559,1.718h2.061l-1.667,1.211l0.636,1.958l-1.666-1.209l-0.998,0.724
					c-0.101,0.804-0.152,1.622-0.152,2.452h19.662c0-10.859,0-12.14,0-19.663C37.158,24.575,33.537,25.701,30.487,27.646z
					 M31.25,42.271l-1.667-1.209l-1.667,1.209l0.638-1.958l-1.667-1.211h2.06l0.637-1.959l0.637,1.959h2.061l-1.667,1.211
					L31.25,42.271z M30.613,34.584l0.637,1.959l-1.667-1.211l-1.667,1.211l0.638-1.959l-1.667-1.211h2.06l0.637-1.959l0.637,1.959
					h2.061L30.613,34.584z M38.302,42.271l-1.667-1.209l-1.667,1.209l0.637-1.958l-1.666-1.211H36l0.636-1.959l0.637,1.959h2.061
					l-1.667,1.211L38.302,42.271z M37.666,34.584l0.637,1.959l-1.667-1.211l-1.667,1.211l0.637-1.959l-1.666-1.211H36l0.636-1.959
					l0.637,1.959h2.061L37.666,34.584z M37.666,28.856l0.637,1.96l-1.667-1.211l-1.667,1.211l0.637-1.96l-1.666-1.21H36l0.636-1.959
					l0.637,1.959h2.061L37.666,28.856z"/>
			</g>
		</g>
	</g>
</g>
</svg>
