<?xml version="1.0" encoding="utf-8"?>
<!-- Generator: Adobe Illustrator 16.0.0, SVG Export Plug-In . SVG Version: 6.00 Build 0)  -->
<!DOCTYPE svg PUBLIC "-//W3C//DTD SVG 1.1//EN" "http://www.w3.org/Graphics/SVG/1.1/DTD/svg11.dtd">
<svg version="1.1" id="Capa_1" xmlns="http://www.w3.org/2000/svg" xmlns:xlink="http://www.w3.org/1999/xlink" x="0px" y="0px"
	 width="2247.328px" height="190px" viewBox="0 0 2247.328 190" enable-background="new 0 0 2247.328 190" xml:space="preserve">
<line fill="none" stroke="#000A30" stroke-width="2" stroke-miterlimit="10" x1="543.438" y1="145.911" x2="986.901" y2="145.911"/>
<text transform="matrix(1 0 0 1 650.1787 138.627)" fill="#000A30" font-family="'OldSansBlack'" font-size="25.4013">Web site developed  </text>
<text transform="matrix(1.008 0 0 1 1128.395 138.627)" fill="#000A30" font-family="'OldSansBlack'" font-size="25.4013">managed by Diego Molina</text>
<g>
	<g>
		
			<linearGradient id="SVGID_1_" gradientUnits="userSpaceOnUse" x1="582.2778" y1="212.6768" x2="691.6987" y2="212.6768" gradientTransform="matrix(1 0 0 1 382.4097 -117.5898)">
			<stop  offset="0" style="stop-color:#B00A0C"/>
			<stop  offset="0.5122" style="stop-color:#E0210B"/>
			<stop  offset="1" style="stop-color:#E07024"/>
		</linearGradient>
		<polygon fill="url(#SVGID_1_)" points="973.707,25.37 972.253,28.133 979.6,66.953 964.688,106.257 981.847,123.654 
			983.012,115.221 991.008,130.779 992.007,125.109 993.188,126.273 1001.039,155.498 1004.529,160.876 1013.689,164.803 
			1019.045,160.766 1019.741,160.766 1025.064,164.621 1037.246,159.785 1046.208,124.818 1048.05,131.7 1056.192,115.32 
			1056.677,124.43 1074.108,105.639 1060.748,66.373 1066.758,27.501 1065.206,25.37 1036.709,53.479 1019.398,48.439 
			1003.364,53.479 		"/>
		<path fill="#FFFFFF" d="M1024.378,147.027c0,2.746-2.229,4.978-4.979,4.978c-2.755,0-4.981-2.229-4.981-4.978
			c0-2.75,2.229-4.979,4.981-4.979C1022.146,142.048,1024.378,144.277,1024.378,147.027z"/>
	</g>
	<g>
		<path d="M1058.798,120.105l-0.914-12.23l-9.315,18.544l-2.347-5.248l-11.13,35.437l-9.466,5.973l-5.887-1.813
			c1.534-1.812,7.688-9.346,7.688-13.498c0-4.436-3.597-8.031-8.029-8.031c-4.438,0-8.031,3.597-8.031,8.031
			c0,4.449,6.125,11.729,7.677,13.498l-5.878,1.813l-9.464-5.973l-11.131-35.437l-2.345,5.248l-9.317-18.544l-0.915,12.23
			l-15.309-14.467l18.887,23.084l0.329-8.272l7.521,15.263l1.137-8.643l7.25,34.256l14.452,5.049l4.916-5.477
			c0.132,0.092,0.306,0.088,0.436-0.004l4.917,5.479l14.453-5.049l7.251-34.256l1.139,8.644l7.52-15.264l0.325,8.272l18.891-23.084
			L1058.798,120.105z M1014.455,146.939c0-2.73,2.212-4.943,4.943-4.943c2.728,0,4.939,2.213,4.939,4.943
			c0,2.728-2.213,4.939-4.939,4.939C1016.667,151.88,1014.455,149.668,1014.455,146.939z"/>
		<polygon points="973.833,27.156 1001.825,56.489 1019.395,49.509 1036.968,56.489 1064.962,27.156 1057.436,66.81 
			1074.108,105.639 1062.762,66.396 1067.839,27.026 1065.346,23.625 1033.567,49.764 1019.395,47.465 1005.229,49.764 
			973.448,23.625 970.957,27.026 976.034,66.396 964.688,105.639 982.381,66.81 		"/>
	</g>
	<path fill="#FFFFFF" d="M1049.934,97.773l-14.981,5.436c0,0.006,0.005,0.01,0.005,0.014l-5.501,25.924l7.923-22.502
		c2.105,1.729,5.04,2.334,7.779,1.338C1049.296,106.48,1051.436,101.913,1049.934,97.773z"/>
	<path fill="#FFFFFF" d="M1009.339,129.146l-5.499-25.924l0,0l-14.982-5.438c-1.502,4.14,0.638,8.711,4.773,10.211
		c2.744,0.996,5.684,0.386,7.784-1.344L1009.339,129.146z"/>
</g>
<line fill="none" stroke="#000A30" stroke-width="2" stroke-miterlimit="10" x1="1050.405" y1="145.911" x2="1493.871" y2="145.911"/>
<image overflow="visible" enable-background="new    " width="2945" height="1080" xlink:href="5D5C7EDC.jpeg"  transform="matrix(0.9997 0 0 1 -58.6396 -2087.9995)">
</image>
</svg>
