<?xml version="1.0" encoding="utf-8"?>
<!-- Generator: Adobe Illustrator 16.0.0, SVG Export Plug-In . SVG Version: 6.00 Build 0)  -->
<!DOCTYPE svg PUBLIC "-//W3C//DTD SVG 1.1//EN" "http://www.w3.org/Graphics/SVG/1.1/DTD/svg11.dtd">
<svg version="1.1" id="Capa_1" xmlns="http://www.w3.org/2000/svg" xmlns:xlink="http://www.w3.org/1999/xlink" x="0px" y="0px"
	 width="2247.328px" height="130px" viewBox="0 30 2247.328 130" enable-background="new 0 30 2247.328 130" xml:space="preserve">
<g>
	
		<line fill="none" stroke="#000A30" stroke-width="2" stroke-miterlimit="10" x1="771.621" y1="132.715" x2="1100.141" y2="132.715"/>
	<text transform="matrix(1 0 0 1 839.9219 126.1621)" fill="#000A30" font-family="'OldSansBlack'" font-size="18.8174">Sitio web desarrollado  </text>
	<text transform="matrix(1.008 0 0 1 1194.4214 126.1621)" fill="#000A30" font-family="'OldSansBlack'" font-size="18.8174">gestionado por Diego Molina</text>
	<g>
		<g>
			
				<linearGradient id="SVGID_1_" gradientUnits="userSpaceOnUse" x1="701.2754" y1="212.6543" x2="782.335" y2="212.6543" gradientTransform="matrix(1 0 0 1 382.4097 -117.5898)">
				<stop  offset="0" style="stop-color:#B00A0C"/>
				<stop  offset="0.5122" style="stop-color:#E0210B"/>
				<stop  offset="1" style="stop-color:#E07024"/>
			</linearGradient>
			<polygon fill="url(#SVGID_1_)" points="1090.367,43.418 1089.29,45.464 1094.732,74.223 1083.685,103.339 1096.397,116.228 
				1097.26,109.979 1103.183,121.506 1103.923,117.306 1104.798,118.168 1110.615,139.817 1113.201,143.802 1119.986,146.71 
				1123.954,143.72 1124.469,143.72 1128.413,146.576 1137.437,142.993 1144.076,117.09 1145.441,122.188 1151.472,110.054 
				1151.832,116.802 1164.745,102.881 1154.847,73.793 1159.299,44.996 1158.15,43.418 1137.039,64.241 1124.215,60.507 
				1112.337,64.241 			"/>
			<path fill="#FFFFFF" d="M1127.904,133.542c0,2.034-1.651,3.688-3.688,3.688c-2.041,0-3.69-1.651-3.69-3.688
				c0-2.037,1.65-3.688,3.69-3.688C1126.251,129.854,1127.904,131.505,1127.904,133.542z"/>
		</g>
		<g>
			<path d="M1153.402,113.599l-0.677-9.061l-6.901,13.737l-1.738-3.888l-8.244,26.251l-7.013,4.425l-4.36-1.343
				c1.136-1.342,5.695-6.923,5.695-9.999c0-3.286-2.664-5.95-5.948-5.95c-3.287,0-5.949,2.665-5.949,5.95
				c0,3.296,4.537,8.689,5.687,9.999l-4.354,1.343l-7.011-4.425l-8.246-26.251l-1.736,3.888l-6.902-13.737l-0.678,9.061
				l-11.341-10.718l13.991,17.102l0.244-6.129l5.57,11.307l0.843-6.402l5.371,25.377l10.706,3.74l3.642-4.057
				c0.098,0.067,0.226,0.064,0.322-0.003l3.643,4.059l10.707-3.74l5.372-25.377l0.843,6.402l5.571-11.307l0.24,6.128l13.994-17.101
				L1153.402,113.599z M1120.553,133.477c0-2.022,1.639-3.661,3.662-3.661c2.021,0,3.659,1.639,3.659,3.661
				c0,2.021-1.64,3.659-3.659,3.659C1122.192,137.137,1120.553,135.498,1120.553,133.477z"/>
			<polygon points="1090.46,44.741 1111.197,66.471 1124.212,61.3 1137.23,66.471 1157.968,44.741 1152.393,74.117 
				1164.745,102.881 1156.339,73.81 1160.1,44.645 1158.253,42.125 1134.711,61.489 1124.212,59.786 1113.718,61.489 
				1090.175,42.125 1088.33,44.645 1092.091,73.81 1083.685,102.881 1096.792,74.117 			"/>
		</g>
		<path fill="#FFFFFF" d="M1146.835,97.055l-11.098,4.026c0,0.005,0.004,0.008,0.004,0.011l-4.076,19.204l5.869-16.67
			c1.561,1.281,3.734,1.729,5.764,0.991C1146.363,103.505,1147.949,100.121,1146.835,97.055z"/>
		<path fill="#FFFFFF" d="M1116.763,120.296l-4.073-19.204l0,0l-11.1-4.028c-1.112,3.066,0.473,6.453,3.536,7.564
			c2.033,0.737,4.211,0.285,5.767-0.996L1116.763,120.296z"/>
	</g>
	
		<line fill="none" stroke="#000A30" stroke-width="2" stroke-miterlimit="10" x1="1147.185" y1="132.715" x2="1475.707" y2="132.715"/>
</g>
<image overflow="visible" enable-background="new    " width="2945" height="1080" xlink:href="148A64F5.jpeg"  transform="matrix(0.9997 0 0 1 -58.6396 -2087.9995)">
</image>
</svg>
