<?xml version="1.0" encoding="utf-8"?>
<!-- Generator: Adobe Illustrator 16.0.0, SVG Export Plug-In . SVG Version: 6.00 Build 0)  -->
<!DOCTYPE svg PUBLIC "-//W3C//DTD SVG 1.1//EN" "http://www.w3.org/Graphics/SVG/1.1/DTD/svg11.dtd">
<svg version="1.1" id="Capa_1" xmlns="http://www.w3.org/2000/svg" xmlns:xlink="http://www.w3.org/1999/xlink" x="0px" y="0px"
	 width="330.333px" height="90px" viewBox="0 0 330.333 90" enable-background="new 0 0 330.333 90" xml:space="preserve">
<g>
	<text transform="matrix(1 0 0 1 17.7471 57.7471)" fill="#F8FBFF" font-family="'OldSansBlack'" font-size="38.4224">Diego Molina</text>
	<g>
		<g>
			<linearGradient id="SVGID_1_" gradientUnits="userSpaceOnUse" x1="252.6221" y1="45.043" x2="307.3511" y2="45.043">
				<stop  offset="0" style="stop-color:#B00A0C"/>
				<stop  offset="0.5122" style="stop-color:#E0210B"/>
				<stop  offset="1" style="stop-color:#E07024"/>
			</linearGradient>
			<polygon fill="url(#SVGID_1_)" points="257.133,10.173 256.406,11.556 260.081,30.971 252.622,50.629 261.206,59.334 
				261.787,55.114 265.787,62.896 266.287,60.061 266.878,60.643 270.805,75.259 272.55,77.951 277.133,79.913 279.81,77.895 
				280.159,77.895 282.822,79.823 288.914,77.404 293.397,59.914 294.317,63.357 298.39,55.165 298.633,59.72 307.351,50.32 
				300.67,30.682 303.675,11.239 302.899,10.173 288.646,24.231 279.988,21.712 271.968,24.231 			"/>
			<circle fill="#FFFFFF" cx="279.988" cy="71.022" r="2.491"/>
		</g>
		<g>
			<path d="M299.694,57.56l-0.457-6.119l-4.66,9.275l-1.174-2.625l-5.566,17.724l-4.734,2.989l-2.944-0.909
				c0.766-0.905,3.845-4.674,3.845-6.75c0-2.219-1.798-4.018-4.016-4.018c-2.219,0-4.016,1.799-4.016,4.018
				c0,2.225,3.062,5.866,3.838,6.75l-2.94,0.909l-4.732-2.989l-5.569-17.724l-1.173,2.625l-4.66-9.275l-0.457,6.119l-7.657-7.239
				l9.447,11.547l0.166-4.139l3.76,7.635l0.568-4.321l3.626,17.133l7.23,2.526l2.459-2.739c0.065,0.045,0.153,0.045,0.217-0.002
				l2.459,2.741l7.23-2.526l3.625-17.133l0.57,4.321l3.759-7.635l0.164,4.139l9.448-11.547L299.694,57.56z M277.515,70.98
				c0-1.367,1.105-2.474,2.473-2.474c1.364,0,2.471,1.106,2.471,2.474c0,1.362-1.107,2.47-2.471,2.47
				C278.62,73.45,277.515,72.343,277.515,70.98z"/>
			<polygon points="257.195,11.065 271.197,25.738 279.984,22.246 288.775,25.738 302.777,11.065 299.013,30.9 307.351,50.32 
				301.676,30.694 304.217,11.001 302.969,9.299 287.074,22.375 279.984,21.223 272.899,22.375 257.003,9.299 255.757,11.001 
				258.296,30.694 252.622,50.32 261.473,30.9 			"/>
		</g>
		<path fill="#FFFFFF" d="M295.26,46.388l-7.494,2.719c0,0.004,0.002,0.004,0.002,0.008l-2.751,12.966l3.963-11.255
			c1.053,0.865,2.521,1.168,3.891,0.669C294.942,50.743,296.011,48.459,295.26,46.388z"/>
		<path fill="#FFFFFF" d="M274.957,62.08l-2.75-12.966l0,0l-7.495-2.72c-0.751,2.069,0.32,4.355,2.388,5.106
			c1.373,0.499,2.843,0.194,3.893-0.671L274.957,62.08z"/>
	</g>
</g>
</svg>
