<?xml version="1.0" encoding="utf-8"?>
<!-- Generator: Adobe Illustrator 16.0.0, SVG Export Plug-In . SVG Version: 6.00 Build 0)  -->
<!DOCTYPE svg PUBLIC "-//W3C//DTD SVG 1.1//EN" "http://www.w3.org/Graphics/SVG/1.1/DTD/svg11.dtd">
<svg version="1.1" id="Capa_1" xmlns="http://www.w3.org/2000/svg" xmlns:xlink="http://www.w3.org/1999/xlink" x="0px" y="0px"
	 width="2001px" height="906px" viewBox="0 0 2001 906" enable-background="new 0 0 2001 906" xml:space="preserve">
<radialGradient id="SVGID_1_" cx="896.4036" cy="356.752" r="361.4529" gradientTransform="matrix(2.6921 0 0 -1.3263 -1407.7065 931.2947)" gradientUnits="userSpaceOnUse">
	<stop  offset="0" style="stop-color:#0052D8"/>
	<stop  offset="0.561" style="stop-color:#0066D8"/>
	<stop  offset="1" style="stop-color:#0082D8"/>
</radialGradient>
<radialGradient id="SVGID_2_" cx="896.4036" cy="356.752" r="361.9526" gradientTransform="matrix(2.6921 0 0 -1.3263 -1407.7065 931.2947)" gradientUnits="userSpaceOnUse">
	<stop  offset="0.2049" style="stop-color:#997372"/>
	<stop  offset="0.9951" style="stop-color:#DA0921"/>
</radialGradient>
<rect x="0" y="-4.73" fill="url(#SVGID_1_)" stroke="url(#SVGID_2_)" stroke-miterlimit="10" width="2011" height="925.73"/>
<g>
	<polygon fill="#D76258" points="743.648,796.398 741.574,798.383 703.175,789.334 713.196,784.443 	"/>
	<polygon fill="#DD5753" points="787.85,810.256 810.434,814.182 824.117,822.893 804.341,821.199 	"/>
	<line fill="none" x1="681.932" y1="789.334" x2="707.183" y2="789.334"/>
	<polygon fill="#1F1A20" points="713.196,789.334 744.938,798.113 741.574,747.969 	"/>
	<polygon fill="#1F1E23" points="741.574,747.969 708.723,739.586 713.196,789.334 	"/>
	<polygon fill="#1E1620" points="741.574,747.969 775.723,771.059 744.938,798.113 	"/>
	<polygon fill="#1B191E" points="775.723,771.059 794.117,811.939 744.938,798.113 	"/>
	<polygon fill="#1E1620" points="775.723,771.059 822.017,790.176 794.117,811.939 	"/>
	<polygon fill="#1D1B20" points="822.017,790.176 831.997,825.77 794.117,811.939 	"/>
	<polygon fill="#201E26" points="831.997,825.77 893.002,755.545 822.017,790.176 	"/>
	<polygon fill="#1C1C22" points="874.727,764.459 822.017,790.176 824.701,728.729 	"/>
	<polygon fill="#1B191E" points="893.002,755.545 824.701,728.729 874.727,764.459 	"/>
	<polygon fill="#1D1A20" points="893.002,755.545 916.73,691.535 839.404,734.504 	"/>
	<path fill="none" stroke="#1D1A20" stroke-miterlimit="10" d="M824.701,728.729"/>
	<polygon fill="#1D1A20" points="822.152,790.656 775.723,771.059 824.701,728.729 	"/>
	<polygon fill="#1E2028" points="824.701,728.729 760.25,690.252 741.574,747.969 	"/>
	<polygon fill="#292C30" points="824.701,728.729 775.723,771.059 741.574,747.969 	"/>
	<polygon fill="#1B1F27" points="707.183,721.756 681.932,789.334 713.196,789.334 708.642,738.682 707.183,722.479 760.25,690.252 
		741.574,747.969 	"/>
	<polygon fill="#292C30" points="708.723,739.791 741.85,748.156 707.183,721.756 	"/>
	<polygon fill="#1B1A20" points="916.73,691.535 865.746,656.904 839.404,734.504 	"/>
	<polygon fill="#1A1A21" points="865.746,656.904 824.701,728.729 839.404,734.504 	"/>
	<polygon fill="#1F1F28" points="865.746,656.904 760.25,690.252 824.701,728.729 	"/>
	<polygon fill="#150E13" points="831.997,825.77 886.347,844.104 855.865,798.293 	"/>
	<polygon fill="#150E13" points="886.347,844.104 936.369,829.736 950.317,864.605 	"/>
	<polygon fill="#0E0E11" points="950.317,864.605 1006.351,878.555 999.859,829.736 	"/>
	<polygon fill="#0E0E11" points="1006.351,878.555 1069.681,890.658 1064.231,834.543 	"/>
	<polygon fill="#0E0E11" points="1064.231,834.543 1074.489,773.621 1031.844,773.621 	"/>
	<polygon fill="#101014" points="1074.489,773.621 1092.444,718.469 1043.069,731.615 	"/>
	<polygon fill="#101216" points="1092.444,718.469 1114.893,671.654 1060.703,691.535 	"/>
	<polygon fill="#161A23" points="1114.893,671.654 1140.863,627.406 1092.444,631.689 	"/>
	<polygon fill="#1A212D" points="1140.863,627.406 1171.004,600.791 1129.32,582.193 	"/>
	<polygon fill="#1E2735" points="1171.004,600.791 1187.922,593.576 1166.274,561.229 	"/>
	<polygon fill="#1E2735" points="1187.922,593.576 1198.803,593.998 1194.896,575.479 	"/>
	<polygon fill="#111C28" points="1198.803,593.998 1214.976,609.869 1212.207,583.775 	"/>
	<polygon fill="#08101A" points="1214.976,609.869 1232.332,631.689 1230.563,606.148 	"/>
	<polygon fill="#08101A" points="1232.332,631.689 1246.177,651.773 1245.878,631.689 	"/>
	<polygon fill="#0E141C" points="1246.177,652.074 1253.694,671.133 1255.257,654.66 	"/>
	<polygon fill="#0E141C" points="1253.694,671.133 1258.925,691.393 1260.487,675.762 	"/>
	<polygon fill="#0C0B0F" points="1064.231,834.543 999.859,829.736 1006.351,878.555 	"/>
	<polygon fill="#101114" points="1064.231,834.543 1031.844,773.621 998.496,829.736 	"/>
	<polygon fill="#121014" points="1031.844,773.621 967.395,755.545 998.496,829.736 	"/>
	<polygon fill="#100E12" points="967.395,755.545 927.312,804.084 998.496,829.736 	"/>
	<polygon fill="#1A181C" points="999.869,829.836 950.317,864.605 936.369,829.736 927.312,804.084 	"/>
	<polygon fill="#B12320" points="1069.681,890.658 976.402,871.1 973.166,890.658 	"/>
	<polygon fill="#C2221F" points="976.402,871.1 918.332,854.355 918.332,890.658 	"/>
	<polygon fill="#D03630" points="976.402,871.1 973.808,890.658 918.332,890.658 	"/>
	<polygon fill="#D83A36" points="918.332,854.355 861.738,890.658 918.332,890.658 	"/>
	<polygon fill="#D94344" points="918.332,854.355 855.967,833.855 861.738,890.658 	"/>
	<polygon fill="#DD5753" points="855.967,833.855 824.117,822.893 827.75,867.572 	"/>
	<polygon fill="#D94C53" points="855.967,833.855 861.738,890.658 827.75,867.572 	"/>
	<polygon fill="#DA5B54" points="827.75,867.572 827.107,890.658 861.738,890.658 	"/>
	<polygon fill="#E27767" points="787.85,810.256 813.024,819.713 780.802,890.658 	"/>
	<polygon fill="#DE6567" points="787.85,810.256 758.648,890.658 780.802,890.658 	"/>
	<polygon fill="#DE6158" points="780.802,890.658 815.161,890.658 813.024,819.713 	"/>
	<polygon fill="#DE6A65" points="824.117,822.893 815.161,890.658 827.107,890.658 	"/>
	<polygon fill="#DD5753" points="824.117,822.893 813.024,819.713 815.161,890.658 	"/>
	<polygon fill="#DD5753" points="824.117,822.893 827.75,867.572 827.107,890.658 	"/>
	<polygon fill="#DD5753" points="787.85,810.256 742.617,797.469 758.648,890.658 	"/>
	<polygon fill="#D76258" points="742.617,797.469 706.384,789.334 721.132,866.049 	"/>
	<polygon fill="#CA4C4A" points="758.648,890.658 721.132,866.049 742.617,797.469 	"/>
	<polygon fill="#B84243" points="758.648,890.658 706.384,890.658 721.132,866.049 	"/>
	<polygon fill="#AF5B5A" points="706.384,890.658 686.823,890.658 686.823,866.77 	"/>
	<polygon fill="#DE786A" points="706.384,789.334 681.932,789.334 721.132,866.049 	"/>
	<polygon fill="#C4756C" points="686.823,866.77 676.882,824.607 721.132,866.049 	"/>
	<polygon fill="#BA605C" points="721.132,866.049 706.384,890.658 686.823,866.77 	"/>
	<polygon fill="#BA605C" points="676.882,824.607 677.684,795.586 721.132,866.049 	"/>
	<polygon fill="#E27767" points="681.932,789.334 677.684,795.586 721.132,866.049 	"/>
	<polygon fill="#1A181C" points="886.775,843.982 879.976,787.766 936.369,829.736 	"/>
	<polygon fill="#24242F" points="707.183,721.756 731.834,667.486 811.313,674.113 	"/>
	<polygon fill="#1A1B22" points="811.313,674.113 796.727,616.5 731.834,667.486 	"/>
	<polygon fill="#2A2733" points="796.727,616.5 764.259,588.605 731.834,668.768 	"/>
	<polygon fill="#1A1B22" points="764.259,588.605 739.09,624.838 732.196,667.873 	"/>
	<polygon fill="#202028" points="764.259,588.605 812.997,562.313 808.671,603.996 	"/>
	<polygon fill="#1D1A20" points="808.756,603.17 796.727,616.5 764.259,588.605 	"/>
	<polyline fill="#24242F" points="812.997,562.313 808.756,603.17 808.96,603.404 828.15,625.08 795.684,616.902 808.188,603.676 	
		"/>
	<polygon fill="#1D1A20" points="828.15,625.08 811.313,674.113 796.904,617.213 	"/>
	<polygon fill="#1B1A20" points="828.15,625.08 865.746,626.041 811.313,674.113 	"/>
	<polygon fill="#1E1620" points="811.313,674.113 865.746,656.904 865.746,626.041 	"/>
	<polygon fill="#1E1620" points="878.068,772.736 879.976,787.766 855.865,798.293 	"/>
	<path fill="#1E1620" d="M895.365,773.943"/>
	<polygon fill="#201E26" points="855.865,798.293 879.976,787.766 886.775,843.982 	"/>
	<polygon fill="#150E13" points="886.775,843.982 885.927,843.701 855.865,798.293 	"/>
	<polygon fill="#1A191E" points="879.976,787.766 967.395,755.545 927.312,804.084 	"/>
	<polygon fill="#150E13" points="879.976,787.766 936.369,829.736 927.312,804.084 	"/>
	<polygon fill="#1A181C" points="893.002,755.545 967.395,755.545 879.976,787.766 	"/>
	<polygon fill="#121115" points="893.002,755.545 878.068,772.736 879.976,787.766 	"/>
	<polygon fill="#150E13" points="967.395,755.545 916.73,691.535 893.002,755.545 	"/>
	<polygon fill="#19181E" points="1043.069,731.615 967.395,755.545 1031.844,773.621 	"/>
	<polygon fill="#100E12" points="1043.069,731.615 1074.489,773.621 1031.844,773.621 	"/>
	<polygon fill="#121316" points="967.395,755.545 1034.088,596.822 916.73,691.535 	"/>
	<polygon fill="#15171C" points="1034.088,596.822 1043.069,731.615 967.395,755.545 	"/>
	<polygon fill="#1A191F" points="865.186,625.08 928.593,588.605 865.746,656.904 	"/>
	<polygon fill="#1D1B21" points="928.593,588.605 995.286,533.135 985.396,636.119 	"/>
	<polygon fill="#1F202D" points="995.286,533.135 1032.805,506.52 1034.088,596.822 	"/>
	<path fill="#2F394B" d="M1071.523,527.441"/>
	<polygon fill="#1E1E25" points="1034.088,596.822 985.396,636.119 995.286,533.135 	"/>
	<polygon fill="#1E1E25" points="928.593,588.605 916.73,691.535 985.396,636.119 	"/>
	<polygon fill="#1A191F" points="928.593,588.605 916.73,691.535 865.746,656.904 	"/>
	<polyline fill="#20242D" points="1032.805,506.52 1051.806,492.09 1071.523,527.441 1032.805,506.52 1034.088,596.822 
		1071.523,527.441 	"/>
	<polygon fill="#262C3B" points="1071.523,527.441 1129.32,582.193 1072.566,604.799 	"/>
	<polygon fill="#20242D" points="1072.566,604.799 1034.088,596.822 1071.523,527.441 	"/>
	<polygon fill="#1F222C" points="1129.32,582.193 1092.444,631.689 1140.863,627.406 	"/>
	<polygon fill="#111215" points="1092.444,631.689 1060.703,691.535 1114.893,671.654 	"/>
	<polygon fill="#16181C" points="1092.444,718.469 1043.069,731.615 1060.703,691.535 	"/>
	<polygon fill="#161920" points="1072.566,604.799 1060.703,691.535 1034.088,596.822 	"/>
	<polygon fill="#191E26" points="1129.32,582.193 1092.444,631.689 1072.566,604.799 	"/>
	<polygon fill="#171A21" points="1060.703,691.535 1092.444,631.689 1072.566,604.799 	"/>
	<polygon fill="#191920" points="1060.703,691.535 1043.069,731.615 1034.088,596.822 	"/>
	<polygon fill="#1E2735" points="1166.89,562.146 1128.035,538.984 1171.004,600.791 	"/>
	<polygon fill="#212A3B" points="1128.035,538.984 1129.32,582.193 1171.004,600.791 	"/>
	<polyline fill="#191920" points="1051.806,492.09 1064.789,494.014 1071.523,527.441 1051.806,492.09 	"/>
	<polygon fill="#323A4D" points="1064.789,494.014 1086.193,513.012 1097.101,551.67 	"/>
	<polygon fill="#3C4254" points="1128.035,538.984 1103.027,524.074 1107.837,550.047 	"/>
	<polygon fill="#293144" points="1103.027,524.074 1086.193,513.012 1097.101,551.67 	"/>
	<polygon fill="#242939" points="1129.32,582.193 1128.035,538.984 1099.673,554.109 	"/>
	<polygon fill="#293144" points="1064.789,494.014 1071.523,527.441 1097.101,551.67 	"/>
	<polygon fill="#272E42" points="1103.027,524.074 1097.101,551.67 1107.789,549.783 	"/>
	<polygon fill="#323A4D" points="1107.789,549.783 1099.673,554.109 1097.101,551.67 	"/>
	<polygon fill="#212D3C" points="1170.189,567.078 1194.896,575.479 1187.922,593.576 	"/>
	<polygon fill="#182532" points="1212.207,583.775 1194.896,575.479 1198.803,593.998 	"/>
	<polygon fill="#0F1924" points="1212.207,583.775 1233.532,605.439 1214.976,609.869 	"/>
	<polygon fill="#09111D" points="1245.878,631.689 1233.532,605.439 1232.332,631.689 	"/>
	<polygon fill="#09141A" points="1245.878,631.689 1255.257,654.66 1246.177,652.074 	"/>
	<polygon fill="#0B1319" points="1255.257,654.66 1260.487,675.762 1253.694,671.133 	"/>
	<polygon fill="#111C28" points="1233.532,605.439 1230.563,606.148 1232.332,631.689 	"/>
	<polygon fill="#10191C" points="1258.949,691.139 1266.44,704.281 1266.44,694.822 	"/>
	<polygon fill="#0D1319" points="1260.487,675.762 1266.44,694.822 1258.949,691.139 	"/>
	<polygon fill="#131923" points="1324.117,890.658 1286.12,890.658 1307.283,848.975 	"/>
	<polygon fill="#0A0E0F" points="1307.283,848.975 1261.909,848.174 1286.12,890.658 	"/>
	<polygon fill="#0E141A" points="1307.283,848.975 1295.1,803.117 1261.909,848.174 	"/>
	<polygon fill="#0D0E11" points="1286.12,890.658 1215.575,890.658 1261.909,848.174 	"/>
	<path fill="#0E1316" d="M1295.1,803.117c0,0-17.633-57.394-17.957-57.07c-0.32,0.318-70.253,34.949-70.253,34.949L1295.1,803.117z"
		/>
	<polygon fill="#0F151A" points="1277.143,746.047 1203.552,714.412 1266.44,704.281 1277.143,746.047 1206.89,780.996 
		1203.552,714.412 	"/>
	<path fill="#0E1316" d="M1203.552,714.412"/>
	<polygon fill="#0D0F11" points="1215.575,890.658 1166.838,890.658 1191.207,854.355 	"/>
	<polyline fill="#0B0C0E" points="1119.383,890.658 1154.974,848.174 1166.838,890.658 1119.383,890.658 	"/>
	<polyline fill="#060608" points="1119.383,890.658 1097.574,854.355 1085.072,890.658 1119.383,890.658 	"/>
	<polygon fill="#0C0E10" points="1191.207,854.355 1261.909,848.174 1215.575,890.658 	"/>
	<polygon fill="#0D0F11" points="1191.207,854.355 1166.838,890.658 1154.974,848.174 	"/>
	<polygon fill="#0B0C0F" points="1154.974,848.174 1097.574,854.355 1119.383,890.658 	"/>
	<polygon fill="#08080A" points="1085.072,890.658 1069.681,890.658 1080.262,852.822 	"/>
	<polygon fill="#070809" points="1097.574,854.355 1080.262,852.822 1085.072,890.658 	"/>
	<polygon fill="#09090D" points="1080.262,852.822 1064.231,834.543 1069.681,890.658 	"/>
	<polygon fill="#0C0D0E" points="1154.974,848.174 1097.574,854.355 1119.383,808.09 	"/>
	<polygon fill="#0E0E12" points="1154.974,848.174 1176.454,811.137 1119.383,808.09 	"/>
	<polygon fill="#0F1115" points="1176.454,811.137 1119.383,808.09 1145.834,760.154 	"/>
	<polygon fill="#111215" points="1145.834,760.154 1104.309,761.758 1119.383,808.09 	"/>
	<polygon fill="#121316" points="1104.309,761.758 1130.443,717.508 1145.834,760.154 	"/>
	<polygon fill="#0F1419" points="1145.834,760.154 1183.992,734.021 1130.443,717.508 	"/>
	<polygon fill="#12161B" points="1183.992,734.021 1186.555,675.34 1130.443,717.508 	"/>
	<polygon fill="#0D0E12" points="1206.89,780.996 1176.454,811.137 1261.909,848.174 	"/>
	<polygon fill="#0E1318" points="1295.1,803.117 1261.909,848.174 1206.89,780.996 	"/>
	<polygon fill="#0E0F13" points="1176.454,811.137 1191.207,854.355 1154.974,848.174 	"/>
	<polygon fill="#0D0E12" points="1261.909,848.174 1191.207,854.355 1176.454,811.137 	"/>
	<polygon fill="#070709" points="1119.383,808.09 1080.262,852.822 1097.574,854.355 	"/>
	<polygon fill="#060608" points="1119.383,808.09 1064.231,834.543 1080.262,852.822 	"/>
	<polygon fill="#060608" points="1064.231,834.543 1074.489,773.621 1119.383,808.09 	"/>
	<polygon fill="#0A0B0E" points="1119.383,808.09 1104.309,761.758 1074.489,773.621 	"/>
	<polygon fill="#0D0E10" points="1074.489,773.621 1104.309,761.758 1130.443,717.508 	"/>
	<polygon fill="#0D0E11" points="1074.489,773.621 1092.444,718.469 1130.443,717.508 	"/>
	<polygon fill="#12161B" points="1186.555,675.34 1092.444,718.469 1130.443,717.508 	"/>
	<polygon fill="#10161D" points="1092.444,718.469 1114.893,671.654 1186.555,675.34 	"/>
	<polygon fill="#141A22" points="1114.893,671.654 1140.863,627.406 1186.555,675.34 	"/>
	<polygon fill="#1A1F28" points="1140.863,627.406 1171.004,600.791 1186.555,675.34 	"/>
	<polygon fill="#16202A" points="1186.555,675.34 1187.922,593.576 1171.004,600.791 	"/>
	<polygon fill="#182430" points="1198.803,593.998 1186.555,675.34 1187.922,593.576 	"/>
	<polygon fill="#16202A" points="1186.555,675.34 1214.976,609.869 1198.803,593.998 	"/>
	<polygon fill="#0E1115" points="1206.89,780.996 1176.454,811.137 1183.992,734.021 	"/>
	<polygon fill="#0F1115" points="1183.992,734.021 1145.834,760.154 1176.454,811.137 	"/>
	<polygon fill="#0F1416" points="1206.89,780.996 1203.552,714.412 1183.992,734.021 	"/>
	<polygon fill="#13161C" points="1203.552,714.412 1186.555,675.34 1183.992,734.021 	"/>
	<polygon fill="#15202C" points="1245.878,651.338 1232.332,631.689 1186.555,675.34 	"/>
	<polygon fill="#151F2B" points="1232.332,631.689 1214.976,609.869 1186.555,675.34 	"/>
	<polygon fill="#1A2532" points="1245.878,651.338 1253.694,671.133 1186.555,675.34 	"/>
	<polygon fill="#151F2A" points="1253.694,671.133 1258.949,691.139 1186.555,675.34 	"/>
	<polygon fill="#141C25" points="1266.44,704.281 1203.552,714.412 1258.949,691.139 	"/>
	<polygon fill="#121A22" points="1258.949,691.139 1203.552,714.412 1186.555,675.34 	"/>
	<polyline fill="#282830" points="821.337,583.957 812.997,562.313 808.96,603.404 821.337,583.957 	"/>
	<polygon fill="#84382D" points="746.463,416.272 755.12,419.181 759.611,412.57 	"/>
	<polygon fill="#793727" points="746.463,416.272 754.8,403.59 759.611,412.57 	"/>
	<polygon fill="#98433B" points="754.8,403.59 766.986,403.59 759.611,412.57 	"/>
	<polygon fill="#A44740" points="766.986,403.59 775.002,403.59 759.611,412.57 	"/>
	<polygon fill="#802927" points="759.611,412.57 775.002,414.171 775.002,403.59 	"/>
	<polygon fill="#A14C44" points="775.002,414.171 757.365,415.875 759.611,412.57 	"/>
	<polygon fill="#92352E" points="775.002,414.171 788.791,414.222 781.896,403.59 	"/>
	<polygon fill="#973932" points="781.896,403.59 775.002,403.59 775.002,414.171 	"/>
	<polygon fill="#943630" points="781.896,403.59 790.072,403.59 798.407,414.171 	"/>
	<polygon fill="#842D29" points="798.407,414.171 788.791,414.222 781.896,403.59 	"/>
	<polygon fill="#963F37" points="790.072,403.59 801.615,403.59 808.027,415.875 	"/>
	<polygon fill="#762524" points="798.407,414.171 808.027,415.875 790.072,403.59 	"/>
	<polygon fill="#6E221B" points="801.615,403.59 815.403,410.805 808.027,415.875 	"/>
	<polygon fill="#561612" points="815.403,410.805 827.267,412.57 808.027,415.875 	"/>
	<polygon fill="#4B120C" points="827.267,412.57 831.437,416.272 808.027,415.875 	"/>
	<polygon fill="#AC5A4E" points="831.437,416.272 805.463,422.829 808.027,415.875 	"/>
	<polygon fill="#B4665B" points="805.463,422.829 793.278,419.351 808.027,415.875 	"/>
	<polygon fill="#BF6E66" points="793.278,419.351 788.791,424.754 805.463,422.829 	"/>
	<polygon fill="#A3473B" points="805.463,422.829 793.278,430.525 788.791,424.754 	"/>
	<polygon fill="#A54742" points="793.278,430.525 778.448,430.525 788.791,424.754 	"/>
	<polygon fill="#B0524B" points="778.448,430.525 766.186,430.525 766.186,424.754 	"/>
	<polygon fill="#B46B5C" points="766.186,430.525 754.8,424.754 766.186,424.754 	"/>
	<polygon fill="#C48E77" points="754.8,424.754 746.463,416.272 755.12,419.181 	"/>
	<polygon fill="#C38976" points="755.12,419.181 766.186,424.754 754.8,424.754 	"/>
	<polygon fill="#AE5349" points="766.186,424.754 788.791,424.754 778.448,430.525 	"/>
	<polygon fill="#C87975" points="793.278,419.351 775.002,414.171 798.407,414.171 	"/>
	<polygon fill="#B35D59" points="798.407,414.171 808.027,415.875 793.278,419.351 	"/>
	<polygon fill="#D08884" points="793.278,419.351 788.791,424.754 775.002,414.171 	"/>
	<polygon fill="#D7968F" points="788.791,424.754 766.186,424.754 775.002,414.171 	"/>
	<polygon fill="#DA9995" points="775.002,414.171 766.186,424.754 757.365,415.875 	"/>
	<polygon fill="#CF9383" points="757.365,415.875 755.12,419.181 766.186,424.754 	"/>
	<polygon fill="#28201B" points="833.562,273.246 833.562,283.105 839.934,283.105 	"/>
	<polygon fill="#3F201B" points="833.562,283.105 836.747,287.314 839.934,283.105 	"/>
	<polygon fill="#3E2626" points="837.015,286.959 838.129,289.117 839.934,283.105 	"/>
	<polygon fill="#251615" points="838.129,289.117 848.95,289.117 839.934,283.105 	"/>
	<polygon fill="#3F201B" points="848.95,289.117 856.526,283.105 839.934,283.105 	"/>
	<polygon fill="#915E54" points="856.526,283.105 869.755,285.208 851.225,287.314 	"/>
	<polygon fill="#481F19" points="869.755,285.208 859.412,275.411 856.526,283.105 	"/>
	<polygon fill="#251615" points="847.388,275.411 845.224,278.176 856.526,283.105 	"/>
	<polygon fill="#2E1611" points="859.412,275.411 847.388,275.411 856.526,283.105 	"/>
	<polygon fill="#1C0D08" points="847.388,275.411 850.875,270.6 859.412,275.411 	"/>
	<polygon fill="#2E1E1D" points="845.224,278.176 839.092,280.31 839.934,283.105 	"/>
	<polygon fill="#3E2626" points="856.526,283.105 839.934,283.105 845.224,278.176 	"/>
	<polygon fill="#271B1B" points="845.224,278.176 836.747,278.176 839.092,280.31 	"/>
	<polygon fill="#322523" points="839.092,280.31 839.934,283.105 836.747,278.176 	"/>
	<polygon fill="#614B4A" points="837.706,273.403 836.747,278.176 841.63,275.589 	"/>
	<polygon fill="#5E4746" points="837.706,273.403 845.224,273.687 841.63,275.589 	"/>
	<polygon fill="#3D2C2C" points="845.224,273.687 845.224,278.176 836.747,278.176 	"/>
	<polygon fill="#261312" points="845.224,273.687 850.875,270.6 845.224,278.176 	"/>
	<polygon fill="#190F0C" points="833.562,273.246 833.562,269.318 850.875,270.6 	"/>
	<polygon fill="#2C1917" points="850.875,270.6 845.224,273.687 833.562,273.246 	"/>
	<polygon fill="#2F2221" points="837.706,273.403 836.747,278.176 833.562,273.246 	"/>
	<polygon fill="#39251F" points="833.562,269.318 833.562,273.246 823.981,274.507 	"/>
	<polygon fill="#6D4741" points="833.562,269.318 826.386,269.638 823.981,274.507 	"/>
	<polygon fill="#97726C" points="828.772,273.876 821.416,280.31 823.981,274.507 	"/>
	<polygon fill="#723A2D" points="823.981,273.876 817.406,279.979 821.563,279.979 	"/>
	<polygon fill="#632D20" points="821.563,279.979 817.406,286.953 817.406,279.979 	"/>
	<polygon fill="#8A463B" points="817.406,279.979 814.12,289.117 817.406,289.117 	"/>
	<polygon fill="#9F5745" points="817.406,289.117 828.029,289.117 817.406,286.953 	"/>
	<polygon fill="#BB9786" points="827.309,289.117 838.129,289.117 836.747,287.314 	"/>
	<polygon fill="#BBA89F" points="833.562,283.105 821.563,279.979 828.772,273.876 	"/>
	<polygon fill="#B1A59F" points="833.562,273.246 833.562,283.105 828.772,273.876 	"/>
	<polygon fill="#D0BFA8" points="833.562,283.105 827.562,289.117 836.747,287.314 	"/>
	<polygon fill="#CDBAA8" points="833.562,283.105 821.563,279.979 827.562,289.117 	"/>
	<polygon fill="#C2947E" points="821.563,279.979 817.406,286.953 827.562,289.117 	"/>
	<polygon fill="#A96450" points="869.755,285.208 890.678,289.117 891.88,275.411 	"/>
	<path fill="none" stroke="#000000" stroke-width="0.25" stroke-miterlimit="10" d="M882.019,304.508"/>
	<polygon fill="#9A513C" points="891.88,275.411 873.12,263.625 869.755,285.208 	"/>
	<polygon fill="#B17164" points="890.678,289.117 867.109,294.889 869.755,285.208 	"/>
	<polygon fill="#AC6B59" points="867.109,294.889 848.95,301.863 869.755,285.208 	"/>
	<polygon fill="#A6695B" points="851.225,287.314 848.95,294.889 869.755,285.208 	"/>
	<polygon fill="#9B5647" points="869.755,285.208 848.95,301.863 848.95,294.889 	"/>
	<polygon fill="#974635" points="848.95,301.863 823.981,303.307 815.764,294.889 	"/>
	<polygon fill="#A56553" points="815.764,294.889 817.406,289.117 848.95,294.889 	"/>
	<polygon fill="#984938" points="848.95,294.889 848.95,301.863 815.764,294.889 	"/>
	<polygon fill="#A96A5C" points="848.95,289.117 848.95,294.889 817.406,289.117 	"/>
	<polygon fill="#A86859" points="851.225,287.314 848.95,289.117 848.95,294.889 	"/>
	<polygon fill="#CD9D85" points="890.678,289.117 887.87,317.013 867.109,294.889 	"/>
	<polygon fill="#D0A38C" points="848.95,301.863 848.95,301.863 867.109,294.889 887.87,317.013 	"/>
	<polygon fill="#C08869" points="823.981,303.307 837.015,318.938 848.95,301.863 	"/>
	<polygon fill="#D0A48B" points="837.015,318.938 887.87,317.013 848.95,301.863 	"/>
	<polygon fill="#C58F6E" points="837.015,318.938 821.416,312.847 823.981,303.307 	"/>
	<polygon fill="#B97860" points="821.416,312.847 805.145,298.376 823.981,303.307 	"/>
	<polygon fill="#99513F" points="815.764,294.889 805.145,298.376 823.981,303.307 	"/>
	<polygon fill="#AC6651" points="805.145,298.376 815.764,294.889 817.406,289.117 	"/>
	<polygon fill="#8B483C" points="814.12,289.117 807.388,285.208 817.406,279.979 	"/>
	<polygon fill="#B77661" points="807.388,285.208 805.145,298.376 814.12,292.004 	"/>
	<polygon fill="#803C2D" points="817.406,289.117 814.12,289.117 813.543,292.414 	"/>
	<polygon fill="#8F4536" points="814.12,289.117 807.388,285.208 813.543,292.414 	"/>
	<polygon fill="#7E392C" points="807.388,285.208 817.406,271.912 817.406,279.979 	"/>
	<polygon fill="#82544B" points="817.406,271.912 831.166,264.749 826.386,269.638 	"/>
	<polygon fill="#78473D" points="826.386,269.638 823.981,273.876 817.406,271.912 	"/>
	<polygon fill="#4A2015" points="823.981,273.876 817.406,279.979 817.406,271.912 	"/>
	<polygon fill="#A87F76" points="831.166,264.749 848.95,266.031 833.562,269.318 	"/>
	<polygon fill="#9D7064" points="833.562,269.318 826.386,269.638 831.166,264.749 	"/>
	<polygon fill="#8D5A47" points="848.95,266.031 859.412,269.318 850.875,270.6 	"/>
	<polygon fill="#9E695E" points="850.875,270.6 848.95,266.031 833.562,269.318 	"/>
	<polygon fill="#49211A" points="859.412,269.318 869.755,285.208 859.412,275.411 	"/>
	<polygon fill="#75463B" points="859.412,269.318 850.875,270.6 859.412,275.411 	"/>
	<polygon fill="#713529" points="873.12,263.625 859.412,269.318 869.755,285.208 	"/>
	<polygon fill="#482218" points="785.584,261.943 795.201,247.513 809.632,263.625 	"/>
	<polygon fill="#2E1914" points="809.632,263.625 833.562,257.613 823.981,244.387 	"/>
	<polygon fill="#291815" points="823.981,244.387 795.201,247.513 809.632,263.625 	"/>
	<polygon fill="#2D1812" points="833.562,257.613 855.144,255.568 823.981,244.387 	"/>
	<polygon fill="#5F3B2F" points="823.981,244.387 856.526,242.463 855.144,255.568 	"/>
	<polygon fill="#6E4636" points="856.526,242.463 877.93,247.513 855.144,255.568 	"/>
	<polygon fill="#7E4E40" points="855.144,255.568 879.854,255.568 877.93,247.513 	"/>
	<polygon fill="#835049" points="879.854,255.568 896.688,259.057 877.93,247.513 	"/>
	<polygon fill="#8C5750" points="896.688,259.057 891.88,249.016 877.93,247.513 	"/>
	<polygon fill="#926559" points="856.526,242.463 891.88,249.016 877.93,247.513 	"/>
	<polygon fill="#875443" points="795.201,247.513 770.191,249.016 785.584,261.943 	"/>
	<polygon fill="#A2694D" points="770.191,249.016 776.202,272.073 785.584,261.943 	"/>
	<polygon fill="#AE7457" points="776.202,272.073 779.571,292.414 785.584,261.943 	"/>
	<polygon fill="#773A27" points="809.632,263.625 792.798,287.314 785.584,261.943 	"/>
	<polygon fill="#975740" points="792.798,287.314 779.571,292.414 785.584,261.943 	"/>
	<polygon fill="#AC6652" points="779.571,292.414 780.894,318.938 792.798,287.314 	"/>
	<polygon fill="#AF6A55" points="780.894,318.938 802.897,318.938 792.798,287.314 	"/>
	<polygon fill="#AC6451" points="802.897,318.938 821.416,312.847 805.145,298.376 	"/>
	<polygon fill="#BC7E61" points="837.015,318.938 802.897,318.938 821.416,312.847 	"/>
	<polygon fill="#A35A48" points="805.145,298.376 792.798,287.314 802.897,318.938 	"/>
	<polygon fill="#723325" points="807.388,285.208 809.632,263.625 792.798,287.314 805.145,298.376 	"/>
	<polygon fill="#AF7967" points="891.88,275.411 896.688,259.057 879.854,255.568 	"/>
	<polygon fill="#AF705F" points="891.88,275.411 873.12,263.625 879.854,255.568 	"/>
	<polygon fill="#A36E5C" points="873.12,263.625 879.854,255.568 855.144,255.568 	"/>
	<polygon fill="#985C4A" points="855.144,255.568 855.687,263.625 873.12,263.625 	"/>
	<polygon fill="#462316" points="848.95,266.031 855.687,263.625 859.412,269.318 	"/>
	<polygon fill="#794034" points="855.687,263.625 873.12,263.625 859.412,269.318 	"/>
	<polygon fill="#7D4A34" points="855.144,255.568 855.687,263.625 848.95,266.031 	"/>
	<polygon fill="#8A5041" points="855.144,255.568 833.562,257.613 848.95,266.031 	"/>
	<polygon fill="#77493A" points="833.95,257.576 831.166,264.749 848.95,266.031 	"/>
	<polygon fill="#68382B" points="809.632,263.625 831.166,264.749 833.95,257.576 	"/>
	<polygon fill="#5E2D22" points="809.632,263.625 808.349,275.945 823.467,264.346 	"/>
	<polyline fill="#652D1F" points="807.307,285.685 817.406,271.912 808.349,275.945 807.388,285.208 	"/>
	<polygon fill="#552719" points="808.349,275.945 823.467,264.346 817.406,272.364 	"/>
	<polygon fill="#401B13" points="823.467,264.346 831.166,264.749 817.406,272.364 	"/>
	<polygon fill="#C8BCB6" points="735.803,282.139 735.803,291.668 722.816,296.93 	"/>
	<polygon fill="#BAABA0" points="735.803,282.263 726.423,285.685 722.816,297.054 	"/>
	<polygon fill="#C6AD9E" points="735.803,291.792 744.938,300.179 731.232,301.863 	"/>
	<polygon fill="#BEA397" points="722.816,297.054 731.232,301.863 735.803,291.792 	"/>
	<polygon fill="#A18D88" points="739.41,284.548 740.369,289.117 750.23,289.117 	"/>
	<polygon fill="#664E4C" points="750.23,289.117 750.23,284.548 739.41,284.548 	"/>
	<polygon fill="#3A1A14" points="744.938,300.179 756.004,297.054 750.23,289.117 	"/>
	<polygon fill="#391C18" points="750.23,289.117 740.369,289.117 744.938,300.179 	"/>
	<polygon fill="#341E17" points="744.938,300.179 740.369,289.117 735.803,291.792 	"/>
	<polygon fill="#231B18" points="740.369,289.117 739.41,284.548 735.803,291.792 	"/>
	<polygon fill="#3C1D13" points="756.004,297.054 759.129,286.953 750.23,289.117 	"/>
	<polygon fill="#28130E" points="759.129,286.953 750.23,284.548 750.23,289.117 	"/>
	<polygon fill="#271B1B" points="850.875,270.6 847.388,275.411 845.224,278.176 	"/>
	<polygon fill="#BBA89F" points="837.015,286.959 836.747,287.314 838.129,289.117 	"/>
	<polygon fill="#4A2015" points="821.563,279.979 823.981,274.507 826.386,269.638 823.981,273.876 	"/>
	<polygon fill="#936551" points="757.365,125.265 733.956,141.938 761.214,150.597 	"/>
	<polygon fill="#A36B51" points="761.214,150.597 777.086,148.512 774.682,121.577 	"/>
	<polygon fill="#835343" points="756.743,125.707 774.682,121.577 761.214,150.597 	"/>
	<polygon fill="#5F433A" points="774.682,121.577 813.159,118.852 792.478,134.724 	"/>
	<polygon fill="#62423C" points="813.159,118.852 852.118,119.813 834.321,131.678 	"/>
	<polygon fill="#6A463E" points="852.118,119.813 877.771,126.789 857.09,134.724 	"/>
	<polygon fill="#4C3432" points="877.771,126.789 896.048,136.086 876.008,143.703 	"/>
	<polygon fill="#835C54" points="896.048,136.086 903.263,148.993 880.815,160.536 	"/>
	<polygon fill="#BE9E94" points="733.956,141.938 719.93,166.949 745.902,165.025 	"/>
	<polygon fill="#C3A6A3" points="719.93,166.949 707.424,199.655 733.956,191.239 	"/>
	<polygon fill="#BD9D97" points="707.424,199.655 704.779,232.843 729.31,205.428 	"/>
	<polygon fill="#C69D93" points="729.31,205.428 733.956,191.239 707.424,199.655 	"/>
	<polygon fill="#CEA894" points="729.31,205.428 752.875,210.958 752.875,183.303 	"/>
	<polygon fill="#CEA697" points="745.902,165.025 752.875,183.303 733.956,191.239 	"/>
	<polygon fill="#CAA7A0" points="745.902,165.025 719.93,166.949 733.956,191.239 	"/>
	<polygon fill="#C9A494" points="704.779,232.843 752.875,210.958 729.31,205.428 	"/>
	<polygon fill="#CAAC9E" points="731.232,220.806 712.955,249.016 704.779,232.843 	"/>
	<polygon fill="#C6B4AB" points="704.779,232.843 700.21,257.613 712.955,249.016 	"/>
	<polygon fill="#C29C7E" points="712.955,249.016 737.006,249.016 731.232,220.806 	"/>
	<path fill="#C79E7C" d="M737.006,249.016l22.123,11.529c0,0,1.926-20.728,2.007-20.486
		C761.214,240.298,737.006,249.016,737.006,249.016z"/>
	<polygon fill="#CDA485" points="761.214,240.298 731.232,220.806 737.006,249.016 	"/>
	<polygon fill="#D4AF99" points="761.214,240.298 752.875,210.958 731.232,220.806 	"/>
	<polygon fill="#D7AE9A" points="761.214,240.298 798.972,214.084 752.875,210.958 	"/>
	<polygon fill="#D3A894" points="798.972,214.084 771.631,212.23 791.896,184.986 	"/>
	<polygon fill="#D8B19C" points="791.896,184.986 752.875,183.303 771.631,212.23 	"/>
	<polygon fill="#D3AE98" points="771.631,212.23 752.875,210.958 752.875,183.303 	"/>
	<polygon fill="#D2AC96" points="791.896,184.986 770.191,156.848 752.875,183.303 	"/>
	<polygon fill="#CEA08C" points="798.972,214.084 820.694,183.303 791.896,184.986 	"/>
	<polygon fill="#CC9D8A" points="820.694,183.303 801.215,151.558 791.896,184.986 	"/>
	<polygon fill="#D0A089" points="801.215,151.558 770.191,156.848 791.896,184.986 	"/>
	<polygon fill="#BD8767" points="792.478,134.724 801.215,151.558 777.086,148.512 	"/>
	<polygon fill="#BC876A" points="777.086,148.512 792.478,134.724 774.682,121.577 	"/>
	<polygon fill="#CA997C" points="777.086,148.512 770.191,156.848 801.215,151.558 	"/>
	<polygon fill="#C59780" points="777.086,148.512 770.191,156.848 761.214,150.597 	"/>
	<polygon fill="#CEA496" points="761.214,150.597 745.902,165.025 752.875,183.303 	"/>
	<polygon fill="#D0A692" points="770.191,156.848 761.214,150.597 752.875,183.303 	"/>
	<polygon fill="#BE8F83" points="761.214,150.597 745.902,165.025 733.956,141.938 	"/>
	<polygon fill="#8F5F4E" points="880.815,160.536 876.008,143.703 896.048,136.086 	"/>
	<polygon fill="#B5836E" points="880.815,160.536 857.729,180.176 859.412,141.938 	"/>
	<polygon fill="#B48170" points="857.729,180.176 860.489,219.135 899.737,195.487 	"/>
	<polygon fill="#BE8773" points="857.729,180.176 815.908,214.084 860.489,219.135 	"/>
	<polygon fill="#B07D6F" points="860.489,219.135 898.574,236.328 899.737,195.487 	"/>
	<polygon fill="#B58270" points="899.737,195.487 896.688,168.272 857.729,180.176 	"/>
	<polygon fill="#A26E5C" points="903.263,148.993 896.688,168.272 857.729,180.176 	"/>
	<polygon fill="#AD7667" points="903.263,148.993 880.815,160.536 857.729,180.176 	"/>
	<polygon fill="#9C6958" points="859.412,141.938 877.771,126.789 876.008,143.703 	"/>
	<polygon fill="#A87060" points="880.815,160.536 876.008,143.703 859.412,141.938 	"/>
	<polygon fill="#9A6452" points="877.771,126.789 857.09,134.724 859.412,141.938 	"/>
	<polygon fill="#AE7154" points="834.321,131.678 859.412,141.938 857.09,134.724 	"/>
	<polygon fill="#815548" points="852.118,119.813 857.09,134.724 834.321,131.678 	"/>
	<polygon fill="#BF8A75" points="859.412,141.938 857.729,180.176 814.12,150.597 	"/>
	<polygon fill="#BE8A71" points="857.729,180.176 820.694,183.303 815.908,214.084 	"/>
	<polygon fill="#C08E74" points="814.12,150.597 820.694,183.303 857.729,180.176 	"/>
	<polygon fill="#BC876A" points="814.12,150.597 834.321,131.678 859.412,141.938 	"/>
	<polygon fill="#946353" points="814.12,150.597 813.159,118.852 834.321,131.678 	"/>
	<polygon fill="#CE9E88" points="814.12,150.597 801.215,151.558 820.694,183.303 	"/>
	<polygon fill="#B67A5C" points="813.159,118.852 814.12,150.597 792.478,134.724 	"/>
	<polygon fill="#C38B6F" points="814.12,150.597 801.215,151.558 792.478,134.724 	"/>
	<polygon fill="#C99883" points="815.908,214.084 798.972,214.084 820.694,183.303 	"/>
	<polygon fill="#D5AD93" points="761.214,240.298 795.201,247.513 798.972,214.084 	"/>
	<polygon fill="#CDA28D" points="815.908,214.084 795.201,247.513 798.972,214.084 	"/>
	<polygon fill="#C6A086" points="860.489,219.135 823.981,244.387 815.908,214.084 	"/>
	<polygon fill="#BE987A" points="815.908,214.084 823.981,244.387 795.201,247.513 	"/>
	<polygon fill="#C09B89" points="860.489,219.135 856.526,242.463 823.981,244.387 	"/>
	<polygon fill="#AE8078" points="898.574,236.328 891.88,249.016 856.526,242.463 	"/>
	<polygon fill="#BC927E" points="898.574,236.328 856.526,242.463 860.489,219.135 	"/>
	<polygon fill="#A98175" points="899.737,195.487 926.75,229.236 898.574,236.328 	"/>
	<polygon fill="#86655A" points="926.75,229.236 938.212,247.513 898.574,236.328 	"/>
	<polygon fill="#9D736E" points="938.212,247.513 942.189,288.216 898.574,236.328 	"/>
	<polygon fill="#A77667" points="942.189,288.216 950.777,312.847 918.977,308.657 	"/>
	<polygon fill="#8C5E51" points="950.777,312.847 942.284,356.817 918.977,308.657 	"/>
	<polygon fill="#88594C" points="942.284,356.817 936.61,391.567 918.977,308.657 	"/>
	<polyline fill="#9A5D4B" points="936.61,391.567 916.891,426.677 908.714,357.738 936.61,391.567 	"/>
	<polygon fill="#A16755" points="908.714,357.738 923.298,328.982 936.61,391.567 	"/>
	<polygon fill="#B2837C" points="918.977,308.657 898.574,236.328 942.189,288.216 	"/>
	<polygon fill="#B27C66" points="918.977,308.657 890.678,289.117 898.574,236.328 	"/>
	<polygon fill="#AB7670" points="895.175,259.057 891.88,249.016 898.574,236.328 	"/>
	<polygon fill="#A76C59" points="908.714,357.738 918.977,308.657 923.298,328.982 	"/>
	<polygon fill="#C49983" points="890.678,289.117 866.268,337.696 918.977,308.657 	"/>
	<polygon fill="#AF755F" points="866.268,337.696 908.714,357.738 918.977,308.657 	"/>
	<polygon fill="#BE8868" points="866.268,337.696 869.272,395.654 908.714,357.738 	"/>
	<polygon fill="#AE715B" points="869.272,395.654 915.008,410.805 908.714,357.738 	"/>
	<polygon fill="#A3634B" points="915.008,410.805 869.272,435.175 869.272,395.654 	"/>
	<polygon fill="#D0A18E" points="866.268,337.696 837.015,318.938 875.692,318.938 	"/>
	<polygon fill="#DBB39D" points="837.015,318.938 819.484,347.154 866.268,337.696 	"/>
	<polygon fill="#D6AD96" points="819.484,347.154 836.818,370.884 866.268,337.696 	"/>
	<polygon fill="#C9997E" points="866.268,337.696 869.272,395.654 836.818,370.884 	"/>
	<polygon fill="#C08D6E" points="836.818,370.884 820.694,395.654 845.703,405.995 	"/>
	<polygon fill="#C18B6B" points="869.272,395.654 845.703,405.995 836.818,370.884 	"/>
	<polygon fill="#BA795B" points="869.272,435.175 845.703,405.995 869.272,395.654 	"/>
	<polygon fill="#8F4B3B" points="869.272,435.175 889.954,452.93 915.008,410.805 	"/>
	<polyline fill="#7F4537" points="916.891,426.677 889.954,452.93 915.008,410.805 916.891,426.677 	"/>
	<polygon fill="#7C3B2A" points="869.272,435.175 856.767,469.482 889.954,452.93 	"/>
	<polygon fill="#A35942" points="869.272,435.175 828.772,446.637 856.767,469.482 	"/>
	<polygon fill="#BB7558" points="828.772,446.637 831.437,478.141 856.767,469.482 	"/>
	<polygon fill="#C99577" points="819.484,347.154 802.897,318.938 837.015,318.938 	"/>
	<polygon fill="#CFA084" points="819.484,347.154 813.543,370.884 836.818,370.884 	"/>
	<polygon fill="#CB9A80" points="813.543,370.884 820.694,395.654 836.818,370.884 	"/>
	<polygon fill="#BC876A" points="876.441,317.445 875.692,318.938 837.015,318.938 	"/>
	<polygon fill="#B27C66" points="891.88,275.411 893.641,269.318 890.678,289.117 	"/>
	<polygon fill="#CAA090" points="752.875,183.303 729.31,205.428 733.956,191.239 	"/>
	<polygon fill="#CEA48A" points="761.214,240.298 795.201,247.513 770.191,249.016 	"/>
	<polygon fill="#2A2020" points="739.41,284.548 735.803,282.263 735.803,291.792 	"/>
	<polygon fill="#261516" points="735.803,282.263 750.472,281.824 750.472,284.548 	"/>
	<polygon fill="#4F4244" points="735.803,282.263 739.41,284.548 750.23,284.511 	"/>
	<polygon fill="#87412F" points="756.004,301.863 744.938,300.179 744.819,313.648 	"/>
	<polygon fill="#B1715E" points="744.819,313.648 756.724,311.122 756.004,301.863 	"/>
	<polygon fill="#BA846A" points="756.724,311.122 761.854,299.097 756.004,301.863 	"/>
	<polygon fill="#9D5C47" points="761.854,299.097 756.004,297.054 756.004,301.863 	"/>
	<polygon fill="#A66655" points="756.004,297.054 744.938,300.179 756.004,301.863 	"/>
	<polygon fill="#9A5B48" points="761.854,299.097 759.129,286.953 756.004,297.054 	"/>
	<polygon fill="#965745" points="761.854,299.097 764.42,279.979 759.129,286.953 	"/>
	<polygon fill="#944E39" points="744.819,313.648 728.826,315.25 744.938,300.179 	"/>
	<path fill="none" stroke="#000000" stroke-width="0.25" stroke-miterlimit="10" d="M731.232,301.863"/>
	<polygon fill="#A1614D" points="744.938,300.179 731.232,301.863 728.826,315.25 	"/>
	<polygon fill="#9F6E60" points="722.816,297.054 721.291,304.028 731.232,301.863 	"/>
	<polygon fill="#A76D5B" points="721.291,304.028 728.826,315.25 731.232,301.863 	"/>
	<polygon fill="#C59986" points="721.291,304.028 712.955,312.847 728.826,315.25 	"/>
	<polygon fill="#B87D69" points="756.724,311.122 751.755,325.832 744.819,313.648 	"/>
	<polygon fill="#C1937E" points="751.755,325.832 728.826,315.25 744.819,313.648 	"/>
	<polygon fill="#D2A99B" points="751.755,325.832 724.979,327.114 728.826,315.25 	"/>
	<polygon fill="#DCB8A8" points="724.979,327.114 735.079,344.27 751.755,325.832 	"/>
	<polygon fill="#D5B2A4" points="724.979,327.114 712.955,312.847 728.826,315.25 	"/>
	<path fill="none" stroke="#000000" stroke-width="0.25" stroke-miterlimit="10" d="M707.424,389.963"/>
	<polygon fill="#614B3E" points="700.21,272.073 700.21,257.613 712.955,249.016 	"/>
	<polygon fill="#A27E68" points="712.955,249.016 737.006,249.016 736.885,253.285 	"/>
	<polygon fill="#987863" points="736.885,253.285 717.044,256.531 712.955,249.016 	"/>
	<polygon fill="#665041" points="717.044,256.531 700.21,272.073 712.955,249.016 	"/>
	<polygon fill="#8C5A43" points="736.885,253.285 759.129,260.544 737.006,249.016 	"/>
	<polygon fill="#A96E4D" points="759.129,260.544 764.42,279.979 753.839,268.195 	"/>
	<polygon fill="#A26B52" points="753.839,268.195 736.885,253.285 759.129,260.544 	"/>
	<polygon fill="#3B231B" points="700.21,272.073 721.856,270.262 717.044,256.531 	"/>
	<polygon fill="#2F1E18" points="721.856,270.262 738.087,268.195 717.044,256.531 	"/>
	<polygon fill="#271B17" points="736.885,253.285 738.087,268.195 717.044,256.531 	"/>
	<polygon fill="#512C1F" points="753.839,268.195 743.858,268.195 736.885,253.285 	"/>
	<polygon fill="#2C170D" points="743.858,268.195 738.087,268.195 736.885,253.285 	"/>
	<polygon fill="#532C1D" points="743.858,268.195 743.858,273.606 764.42,279.979 	"/>
	<polygon fill="#6D3A26" points="764.42,279.979 753.839,268.195 743.858,268.195 	"/>
	<polygon fill="#75483A" points="743.858,273.606 726.263,274.629 721.856,270.262 	"/>
	<polygon fill="#593328" points="738.087,268.195 743.858,273.606 743.858,268.195 	"/>
	<polygon fill="#603830" points="738.087,268.195 721.856,270.262 743.858,273.606 	"/>
	<polygon fill="#A27859" points="700.21,272.073 703.335,289.117 715.962,281.824 	"/>
	<polygon fill="#422415" points="712.955,294.65 720.891,285.27 722.816,297.054 	"/>
	<polygon fill="#734436" points="722.816,297.054 715.479,303.126 712.955,294.65 	"/>
	<polygon fill="#311E17" points="720.891,285.27 729.31,279.979 726.423,285.685 	"/>
	<polygon fill="#301C14" points="726.423,285.685 722.816,297.054 720.891,285.27 	"/>
	<polygon fill="#39241C" points="729.31,279.979 743.858,279.979 735.803,282.263 	"/>
	<polygon fill="#413026" points="726.423,285.685 735.803,282.263 729.31,279.979 	"/>
	<polygon fill="#854637" points="750.472,281.824 764.42,279.979 759.129,286.953 	"/>
	<polygon fill="#2C1611" points="759.129,286.953 750.23,284.511 750.472,281.824 	"/>
	<polygon fill="#764837" points="721.856,270.262 726.263,274.629 715.962,281.824 	"/>
	<polygon fill="#915A44" points="721.856,270.262 700.21,272.073 715.962,281.824 	"/>
	<polygon fill="#442217" points="750.472,281.824 743.858,273.606 763.96,279.467 	"/>
	<polygon fill="#6B453E" points="743.858,273.606 743.858,279.979 750.472,281.824 	"/>
	<polygon fill="#392424" points="743.858,273.606 729.31,279.979 743.858,279.979 	"/>
	<polygon fill="#9C7865" points="726.263,274.629 729.31,279.979 743.858,273.606 	"/>
	<polygon fill="#A47664" points="726.263,274.629 715.962,281.824 720.891,285.27 	"/>
	<polygon fill="#996C59" points="729.31,279.979 726.263,274.629 720.891,285.27 	"/>
	<polygon fill="#875040" points="715.962,281.824 712.955,294.65 720.891,285.27 	"/>
	<polygon fill="#965B45" points="703.335,289.117 712.955,294.65 715.962,281.824 	"/>
	<polygon fill="#A07259" points="703.335,289.117 708.627,310.521 712.955,294.65 	"/>
	<polygon fill="#C09681" points="715.479,303.126 712.955,312.847 721.291,304.028 	"/>
	<polygon fill="#A87362" points="722.816,297.054 721.291,304.028 715.479,303.126 	"/>
	<polygon fill="#C09F8C" points="712.955,312.847 708.627,310.521 715.479,303.126 	"/>
	<polygon fill="#A8705A" points="712.955,294.65 708.627,310.521 715.479,303.126 	"/>
	<polygon fill="#CAB2A5" points="708.627,310.521 706.58,337.696 712.955,312.847 	"/>
	<polygon fill="#D6B8A8" points="724.979,327.114 707.367,337.243 719.147,349.962 	"/>
	<polygon fill="#D3B2A1" points="735.079,344.27 719.147,349.962 724.979,327.114 	"/>
	<polygon fill="#D5AF9C" points="712.955,312.847 706.58,337.696 724.979,327.114 	"/>
	<polygon fill="#DEBBB0" points="751.943,325.272 771.631,331.443 735.079,344.27 	"/>
	<polygon fill="#DCB2A8" points="771.631,331.443 756.724,311.122 751.943,325.272 	"/>
	<polygon fill="#D5A99D" points="756.724,311.122 761.854,299.097 771.631,331.443 	"/>
	<polygon fill="#CC9982" points="779.571,292.414 761.854,299.097 771.631,331.443 	"/>
	<polygon fill="#C48C74" points="780.894,318.938 779.571,292.414 771.631,331.443 	"/>
	<polygon fill="#C8937A" points="779.571,292.414 776.202,272.073 761.854,299.097 	"/>
	<polygon fill="#D2AA8D" points="764.42,279.979 776.202,272.073 761.854,299.097 	"/>
	<polygon fill="#C49977" points="776.202,272.073 770.191,249.016 759.129,260.544 	"/>
	<polygon fill="#BE926D" points="776.202,272.073 764.42,279.979 759.129,260.544 	"/>
	<polygon fill="#D2AB90" points="761.136,240.058 759.129,260.544 770.191,249.016 	"/>
	<polyline fill="#B79387" points="706.58,337.696 708.627,362.869 719.147,349.962 706.843,336.678 	"/>
	<polygon fill="#D8B199" points="735.079,344.27 735.06,377.617 719.147,349.962 	"/>
	<polygon fill="#C8A290" points="735.06,377.617 722.215,393.65 708.627,362.869 	"/>
	<polygon fill="#D7968F" points="757.365,415.875 746.463,416.272 755.12,419.181 	"/>
	<polygon fill="#CB9F81" points="750.794,338.755 750.23,368.317 735.079,344.27 	"/>
	<polygon fill="#CEA182" points="750.794,338.755 760.894,357.738 750.23,368.317 	"/>
	<polygon fill="#B57D6C" points="771.631,331.443 802.897,347.154 802.897,318.938 	"/>
	<polygon fill="#BD8872" points="802.897,318.938 780.894,318.938 771.631,331.443 	"/>
	<polygon fill="#BC7F6D" points="802.897,318.938 819.484,347.154 802.897,347.154 	"/>
	<polygon fill="#B87C64" points="814.12,347.154 813.543,370.884 819.484,347.154 	"/>
	<polygon fill="#A25C49" points="802.897,347.154 808.512,354.85 814.12,347.154 	"/>
	<polygon fill="#9A5242" points="808.512,354.85 808.512,366.675 814.12,347.154 	"/>
	<polygon fill="#B06B58" points="813.564,370.081 808.512,366.675 814.12,347.154 	"/>
	<polygon fill="#9B503F" points="808.512,366.675 799.051,371.686 808.512,375.854 	"/>
	<polygon fill="#AF6A55" points="813.564,370.081 808.512,375.854 808.512,366.675 	"/>
	<polygon fill="#BA7C6A" points="802.897,347.154 796.804,360.944 808.512,354.85 	"/>
	<polygon fill="#A9624E" points="808.512,354.85 796.804,360.944 808.512,366.675 	"/>
	<polygon fill="#4E150E" points="796.804,367.998 784.139,370.081 788.791,362.869 	"/>
	<polygon fill="#310903" points="788.791,362.869 779.571,359.018 784.139,370.081 	"/>
	<polygon fill="#350E07" points="779.571,359.018 771.631,364.55 782.553,366.239 	"/>
	<polygon fill="#783222" points="771.631,364.55 769.029,374.01 778.207,365.567 	"/>
	<polygon fill="#964334" points="784.139,370.081 773.302,370.081 778.207,365.567 	"/>
	<polygon fill="#69291D" points="784.139,370.081 782.553,366.239 778.207,365.567 	"/>
	<polygon fill="#BF8C7C" points="771.631,331.443 773.302,351.003 802.897,347.154 	"/>
	<polygon fill="#CFA394" points="773.302,351.003 760.894,357.738 771.631,331.443 	"/>
	<polygon fill="#D6ABA2" points="750.794,338.755 771.631,331.443 760.894,357.738 	"/>
	<polygon fill="#C4907D" points="773.302,351.003 788.791,362.869 802.897,347.154 	"/>
	<polygon fill="#B0755B" points="773.302,351.003 771.631,364.55 760.894,357.738 	"/>
	<polygon fill="#BB8361" points="771.631,364.55 750.23,368.317 760.894,357.738 	"/>
	<polygon fill="#9F5647" points="773.302,351.003 779.571,359.018 788.791,362.869 	"/>
	<polygon fill="#995342" points="773.302,351.003 771.631,364.55 779.571,359.018 	"/>
	<polygon fill="#C08571" points="796.804,360.944 788.791,362.869 802.897,347.154 	"/>
	<polygon fill="#9D4C40" points="788.791,362.869 796.804,367.998 796.804,360.944 	"/>
	<polygon fill="#AB5B4E" points="796.804,367.998 808.512,366.675 796.804,360.944 	"/>
	<polygon fill="#964136" points="799.051,371.686 796.345,367.998 808.512,366.675 	"/>
	<polygon fill="#B16A56" points="808.512,375.854 784.181,381.225 799.051,371.686 	"/>
	<polygon fill="#944734" points="769.029,374.01 784.181,381.225 773.616,369.79 	"/>
	<polygon fill="#9F5240" points="784.139,370.081 784.181,381.225 773.616,369.79 	"/>
	<polygon fill="#9E463E" points="796.345,367.998 784.181,381.225 799.051,371.686 	"/>
	<polygon fill="#AA5A4C" points="784.139,370.081 796.345,367.998 784.181,381.225 	"/>
	<polygon fill="#A05B40" points="750.23,368.317 761.212,375.854 771.631,364.55 	"/>
	<polygon fill="#974935" points="761.212,375.854 769.029,374.01 771.631,364.55 	"/>
	<polygon fill="#B06A56" points="761.212,375.854 766.986,384.271 769.029,374.01 	"/>
	<polygon fill="#CBA689" points="719.147,349.962 708.627,362.869 735.06,377.617 	"/>
	<polygon fill="#C99D77" points="750.23,368.317 735.06,377.617 735.079,344.27 	"/>
	<polygon fill="#BE8E76" points="735.06,377.617 736.584,424.754 722.215,393.65 	"/>
	<polygon fill="#B37D67" points="766.986,384.271 735.517,400.227 761.212,375.854 	"/>
	<polygon fill="#CBA491" points="747.381,370.406 735.517,400.227 761.212,375.854 	"/>
	<polygon fill="#955338" points="747.381,370.406 750.23,368.317 761.212,375.854 	"/>
	<polygon fill="#CCA07E" points="750.23,368.317 735.517,400.227 735.06,377.617 	"/>
	<polygon fill="#AD795A" points="746.463,416.272 735.517,400.227 736.584,424.754 	"/>
	<polygon fill="#D4A090" points="754.8,403.59 766.986,384.271 775.002,403.59 	"/>
	<polygon fill="#AD7055" points="754.8,403.59 746.463,416.272 735.517,400.227 	"/>
	<polygon fill="#C1907C" points="766.986,384.271 754.8,403.59 735.517,400.227 	"/>
	<polygon fill="#B46F56" points="784.181,381.225 775.002,403.59 766.986,384.271 	"/>
	<polygon fill="#BD836D" points="808.512,375.854 801.615,403.59 784.181,381.225 	"/>
	<polygon fill="#C2876A" points="775.002,403.59 801.615,403.59 784.181,381.225 	"/>
	<polygon fill="#C8977F" points="813.564,370.081 820.694,395.654 808.512,375.854 	"/>
	<polygon fill="#B4765C" points="820.694,395.654 815.403,410.805 808.512,375.854 	"/>
	<polygon fill="#BB8069" points="808.512,375.854 815.403,410.805 801.615,403.59 	"/>
	<polygon fill="#A9664D" points="820.694,395.654 845.703,405.995 827.267,412.57 	"/>
	<polygon fill="#A96247" points="827.267,412.57 815.403,410.805 820.694,395.654 	"/>
	<polygon fill="#20120F" points="743.858,279.979 750.472,281.824 735.803,282.263 	"/>
	<polygon fill="#764837" points="764.42,279.979 763.198,279.601 750.472,281.824 	"/>
	<polygon fill="#A15640" points="766.986,384.271 784.181,381.225 769.029,374.01 	"/>
	<polygon fill="#762819" points="766.186,430.525 766.186,437.499 778.448,430.525 	"/>
	<polygon fill="#73261D" points="793.278,430.525 796.345,436.897 778.448,430.525 	"/>
	<polygon fill="#722519" points="766.186,437.499 779.69,436.897 778.448,430.525 	"/>
	<polygon fill="#772B1F" points="779.69,436.897 796.345,436.897 778.448,430.525 	"/>
	<polygon fill="#AA5849" points="796.345,436.897 794.841,445.315 779.69,436.897 	"/>
	<polygon fill="#B46B55" points="779.69,436.897 778.899,446.037 794.841,445.315 	"/>
	<polygon fill="#9E4D39" points="766.186,437.499 767.906,446.037 779.69,436.897 	"/>
	<polygon fill="#B2654E" points="767.906,446.037 778.899,446.037 779.69,436.897 	"/>
	<polygon fill="#C48D6B" points="831.437,416.272 838.852,424.754 818.448,430.525 	"/>
	<polygon fill="#BF7F61" points="805.463,422.829 818.448,430.525 831.437,416.272 	"/>
	<polygon fill="#B66952" points="818.448,430.525 793.278,430.525 805.463,422.829 	"/>
	<polygon fill="#793424" points="827.267,412.57 838.255,408.652 831.437,416.272 	"/>
	<polygon fill="#AF6B4E" points="845.703,405.995 838.852,424.754 838.255,408.652 	"/>
	<polygon fill="#AB6247" points="838.255,408.652 838.852,424.754 831.437,416.272 	"/>
	<polygon fill="#B57150" points="845.703,405.995 863.187,427.639 838.852,424.754 	"/>
	<polygon fill="#B06245" points="838.852,424.754 836.818,444.36 863.187,427.639 	"/>
	<polygon fill="#A55B41" points="869.272,435.175 863.187,427.639 836.818,444.36 	"/>
	<polygon fill="#B26249" points="818.448,430.525 836.818,444.36 838.852,424.754 	"/>
	<polygon fill="#A5553B" points="818.448,430.525 811.037,448.321 828.772,446.637 	"/>
	<polygon fill="#B06047" points="836.818,444.36 828.772,446.637 818.448,430.525 	"/>
	<polygon fill="#98482F" points="818.448,430.525 811.037,448.321 796.345,436.897 	"/>
	<polygon fill="#96422E" points="818.448,430.525 793.278,430.525 796.345,436.897 	"/>
	<polygon fill="#A85B42" points="811.037,448.321 794.841,445.315 796.345,436.897 	"/>
	<polygon fill="#CF9A83" points="794.841,445.315 788.791,459.064 811.037,448.321 	"/>
	<polygon fill="#C5916E" points="811.037,448.321 807.397,464.814 828.772,446.637 	"/>
	<polygon fill="#C0836A" points="807.397,464.814 830.2,463.549 828.772,446.637 	"/>
	<polygon fill="#D6A58F" points="807.397,464.814 788.791,459.064 811.037,448.321 	"/>
	<polygon fill="#CA9073" points="767.906,446.037 775.002,460.986 778.899,446.037 	"/>
	<polygon fill="#D49C8A" points="794.841,445.315 788.791,459.064 778.899,446.037 	"/>
	<polygon fill="#CC9478" points="775.002,460.986 788.791,459.064 778.899,446.037 	"/>
	<polygon fill="#B0624A" points="830.2,463.549 831.437,473.572 807.397,464.814 	"/>
	<polyline fill="#90584B" points="975.567,295.53 966.429,305.953 962.905,291.792 975.567,295.53 	"/>
	<polyline fill="#955F54" points="962.905,291.792 956.813,303.066 966.429,305.953 962.905,291.363 	"/>
	<polyline fill="#9B6255" points="981.982,288.216 978.297,281.582 986.959,283.105 981.982,288.216 	"/>
	<polygon fill="#5F2C2A" points="970.277,321.985 973.805,321.985 973.805,336.575 	"/>
	<polygon fill="#63302C" points="970.277,321.985 970.277,332.738 973.805,336.575 	"/>
	<polygon fill="#733A35" points="973.805,321.985 980.661,335.612 973.805,336.575 	"/>
	<polygon fill="#6D3933" points="970.277,332.738 963.731,338.659 973.805,336.575 	"/>
	<polyline fill="#A26656" points="966.429,305.953 956.17,317.445 970.277,321.985 966.429,305.953 	"/>
	<polyline fill="#B28076" points="970.277,321.985 956.17,317.445 970.277,332.738 970.277,321.985 	"/>
	<polygon fill="#B07F6F" points="980.661,335.612 985.75,320.346 975.567,318.938 	"/>
	<polyline fill="#97584C" points="975.567,318.938 973.805,321.985 980.661,335.612 975.567,318.938 	"/>
	<polygon fill="#4A3942" points="941.802,288.557 954.244,291.363 956.17,268.315 	"/>
	<polygon fill="#805C58" points="941.802,288.557 950.777,312.847 954.244,291.363 	"/>
	<polyline fill="#83564E" points="956.17,317.445 950.777,312.847 956.813,303.066 956.17,317.445 	"/>
	<polyline fill="#79504C" points="956.813,303.066 954.244,291.363 950.777,312.847 956.813,303.388 	"/>
	<polygon fill="#504E58" points="839.054,787.766 833.681,786.508 834.584,794.984 837.366,797.352 	"/>
	<polygon fill="#404147" points="872.278,800.516 881.058,805.326 876.668,791.258 	"/>
	<polygon fill="#2E3035" points="881.058,805.326 879.976,787.766 876.668,791.258 	"/>
	<polygon fill="#38353E" points="872.278,800.516 869.755,773.58 876.668,791.258 	"/>
	<polygon fill="#2E3035" points="879.976,787.766 869.755,773.58 876.668,791.258 	"/>
	<polygon fill="#3E3C46" points="879.976,787.766 874.864,759.354 869.755,773.58 	"/>
	<polygon fill="#41454F" points="874.864,759.354 867.99,737.867 869.755,773.58 	"/>
	<polygon fill="#383A45" points="869.755,773.58 860.615,742.037 867.99,737.867 	"/>
	<polygon fill="#44444C" points="867.99,737.867 862.059,723.439 860.615,742.037 	"/>
	<polygon fill="#2A2F35" points="860.615,742.037 862.059,723.439 844.263,706.125 	"/>
	<polygon fill="#3E464E" points="844.263,706.125 829.512,699.07 832.559,711.576 	"/>
	<polygon fill="#41434E" points="829.512,699.07 807.066,699.07 814.441,707.086 	"/>
	<polygon fill="#494955" points="807.066,699.07 786.386,704.521 793.759,711.576 	"/>
	<polygon fill="#3D3C47" points="786.386,704.521 764.259,717.99 776.926,717.99 	"/>
	<polygon fill="#42424D" points="764.259,717.99 746.783,732.736 761.532,729.533 	"/>
	<polygon fill="#40404A" points="746.783,732.736 730.753,744.764 742.294,743.48 	"/>
	<polygon fill="#3C3C47" points="730.753,744.764 721.132,758.551 730.753,754.383 	"/>
	<polygon fill="#272730" points="721.132,758.551 718.89,764.162 724.339,764.162 	"/>
	<polygon fill="#41414C" points="860.615,742.037 832.559,711.576 844.263,706.125 	"/>
	<polygon fill="#3D414A" points="832.559,711.576 814.441,707.086 829.512,699.07 	"/>
	<polygon fill="#24252E" points="814.441,707.086 793.759,711.576 807.066,699.07 	"/>
	<polygon fill="#3A3944" points="793.759,711.576 776.604,717.99 786.386,704.521 	"/>
	<polygon fill="#191922" points="776.604,717.99 761.532,729.533 764.259,717.99 	"/>
	<polygon fill="#3C3C47" points="761.532,729.533 742.294,743.48 746.783,732.736 	"/>
	<polygon fill="#393943" points="742.294,743.48 730.753,754.383 730.753,744.764 	"/>
	<polygon fill="#272731" points="730.753,754.383 724.339,764.162 721.132,758.551 	"/>
	<polygon fill="#343239" points="785.102,779.234 796.887,779.234 790.272,774.305 	"/>
	<polygon fill="#413F47" points="796.887,779.234 805.422,781.396 801.154,774.305 	"/>
	<polygon fill="#3A3941" points="801.154,774.305 790.272,774.305 796.887,779.234 	"/>
	<polygon fill="#413F47" points="801.154,774.305 812.639,779.234 805.422,781.396 	"/>
	<polygon fill="#242128" points="812.639,779.234 819.371,784.523 808.671,783.563 	"/>
	<polygon fill="#424048" points="812.639,779.234 808.671,783.563 805.422,781.396 	"/>
	<polygon fill="#413F47" points="785.102,779.234 784.381,774.305 790.272,774.305 	"/>
	<polygon fill="#413F47" points="833.681,787.766 833.681,781.396 828.63,785.365 	"/>
	<polygon fill="#3C3A42" points="833.681,781.396 828.63,777.85 828.63,785.365 	"/>
	<polygon fill="#48474E" points="833.681,781.396 836.807,772.617 828.63,777.85 	"/>
	<polygon fill="#464550" points="828.63,777.85 833.681,766.367 836.807,772.617 	"/>
	<polygon fill="#42414D" points="836.807,772.617 842.338,762.52 833.681,766.367 	"/>
	<polygon fill="#42414D" points="842.338,762.52 839.054,757.109 833.681,766.367 	"/>
	<polygon fill="#3C404A" points="842.338,762.52 847.709,757.109 839.054,757.109 	"/>
	<polygon fill="#2F333B" points="846.232,758.598 851.234,758.598 853.159,748.77 	"/>
	<polygon fill="#41404C" points="853.159,748.77 844.822,749.732 847.281,757.109 	"/>
	<polygon fill="#35343F" points="844.822,749.732 839.054,757.109 847.281,757.109 	"/>
	<polygon fill="#35343F" points="853.159,748.77 857.007,752.381 857.007,771.377 	"/>
	<polygon fill="#3A3A41" points="857.007,771.059 844.822,792.699 846.589,777.85 	"/>
	<polygon fill="#403F48" points="844.822,792.699 844.714,792.77 837.366,797.352 839.054,787.766 	"/>
	<polygon fill="#3C3B42" points="837.366,797.352 829.912,797.027 833.681,787.766 	"/>
	<polygon fill="#44434B" points="828.63,785.365 829.912,797.027 833.681,787.766 	"/>
	<polygon fill="#27262D" points="846.589,777.85 839.054,787.766 844.714,792.77 	"/>
	<polygon fill="#3F434E" points="853.159,748.77 851.234,758.598 857.007,771.059 	"/>
	<polygon fill="#4C4D58" points="851.234,758.598 851.234,774.82 857.007,771.059 	"/>
	<polygon fill="#403F46" points="851.234,767.146 846.589,777.85 851.234,774.82 	"/>
	<polygon fill="#504E58" points="848.91,794.945 855.967,782.42 858.69,798.293 	"/>
	<polygon fill="#29262D" points="858.69,798.293 864.304,789.652 855.967,782.42 	"/>
	<polygon fill="#413F47" points="864.304,789.652 863.502,781.396 855.967,782.42 	"/>
	<polygon fill="#53555B" points="806.896,743.48 815.726,750.855 806.896,750.855 	"/>
	<polygon fill="#34363C" points="815.726,750.855 815.726,743.48 806.896,743.48 	"/>
	<polygon fill="#454650" points="832.559,760.074 832.559,766.367 826.306,764.162 	"/>
	<polygon fill="#35343F" points="832.559,760.074 826.306,760.074 826.306,764.162 	"/>
	<polyline fill="#35343F" points="834.963,744.764 842.338,745.725 834.963,738.75 834.963,745.242 	"/>
	<polygon fill="#3C404A" points="842.338,745.725 842.338,737.389 834.963,738.75 	"/>
	<polygon fill="#3C404A" points="842.338,737.389 840.976,729.533 834.321,727.047 	"/>
	<polygon fill="#474654" points="834.321,727.047 824.462,731.697 835.765,735.785 	"/>
	<polygon fill="#494955" points="824.462,731.697 819.371,742.238 824.752,742.238 	"/>
	<polygon fill="#4D4E55" points="819.371,742.238 824.752,742.238 822.063,751.496 	"/>
	<polygon fill="#1F1F28" points="835.765,735.785 827.668,736.967 824.462,731.697 	"/>
	<polygon fill="#363642" points="834.963,738.75 835.765,735.785 842.338,737.389 	"/>
	<polygon fill="#494958" points="842.338,737.389 834.321,727.047 835.765,735.785 	"/>
	<polygon fill="#35343F" points="827.668,736.967 824.711,742.375 824.462,731.697 	"/>
	<polygon fill="#42414D" points="832.559,766.367 822.063,773.559 826.306,764.162 	"/>
	<polygon fill="#403F48" points="826.306,764.162 819.972,765.525 822.063,773.559 	"/>
	<polyline fill="#403F48" points="819.371,742.238 816.123,757.668 822.063,751.496 819.371,742.238 	"/>
	<polygon fill="#212227" points="822.063,751.496 822.063,762.641 816.123,757.668 	"/>
	<polygon fill="#393A40" points="816.123,757.668 816.365,768.26 822.063,762.641 	"/>
	<polygon fill="#2C2C33" points="822.063,762.641 824.247,764.605 819.972,765.525 	"/>
	<polygon fill="#2C2C33" points="822.063,762.641 817.969,766.676 819.972,765.525 	"/>
	<polygon fill="#47474E" points="822.063,773.559 818.319,773.943 819.972,765.525 	"/>
	<polygon fill="#404148" points="818.319,773.943 816.365,768.26 817.969,766.676 	"/>
	<polygon fill="#43454C" points="819.972,765.525 817.969,766.676 818.319,773.943 	"/>
	<polyline fill="#383A40" points="760.092,735.785 758.527,771.377 764.259,768.26 	"/>
	<polyline fill="#272731" points="764.259,768.26 764.9,740.756 760.092,735.785 	"/>
	<polyline fill="#51515E" points="780.171,732.736 779.571,727.648 771.754,730.416 	"/>
	<polyline fill="#393B41" points="771.754,730.416 772.956,736.506 780.171,732.736 	"/>
	<polyline fill="#4C4D53" points="772.956,736.506 771.754,730.416 760.092,735.785 	"/>
	<polyline fill="#46474E" points="760.092,735.785 764.9,740.756 772.956,736.506 	"/>
	<polygon fill="#413F47" points="759.275,754.383 762.495,753.584 760.092,735.225 	"/>
	<polygon fill="#32333A" points="762.495,753.26 758.527,771.377 764.259,768.26 	"/>
	<polyline fill="#413F47" points="771.153,742.838 771.153,751.658 778.047,751.658 	"/>
	<polyline fill="#494A52" points="771.153,742.838 778.047,742.838 778.047,751.658 764.516,757.27 764.74,747.619 771.153,742.838 
			"/>
	<polygon fill="#413F47" points="764.259,768.26 758.527,771.377 770.433,772.139 	"/>
	<polygon fill="#46474E" points="770.433,772.139 779.571,768.26 769.892,763.9 	"/>
	<polygon fill="#3F4147" points="769.892,763.9 764.259,768.26 770.433,772.139 	"/>
	<polygon fill="#494A52" points="779.571,768.26 780.171,760.295 769.892,763.9 	"/>
	<polyline fill="#1F2026" points="764.516,757.27 771.153,751.658 771.153,742.838 778.047,751.658 771.153,751.658 	"/>
	<polyline fill="#383A40" points="771.153,742.838 764.39,757.27 771.153,751.658 771.153,742.707 	"/>
	<polyline fill="#32333A" points="751.914,758.551 744.699,758.551 744.699,750.855 	"/>
	<polyline fill="#494A52" points="744.699,750.855 751.914,750.855 751.914,758.551 	"/>
	<polyline fill="#26262F" points="731.834,765.285 737.243,765.285 737.243,760.295 	"/>
	<polyline fill="#191921" points="737.243,760.295 731.834,760.295 731.834,765.285 	"/>
	<polyline fill="#393B41" points="740.21,757.27 740.21,750.855 744.699,750.855 	"/>
	<polyline fill="#272731" points="744.699,750.855 744.699,757.27 740.21,757.27 	"/>
	<polyline fill="#25252D" points="737.243,758.551 740.21,758.551 740.21,753.584 	"/>
	<polyline fill="#494A52" points="740.21,753.584 737.243,753.584 737.243,758.551 	"/>
	<polyline fill="#393B41" points="740.21,762.789 740.21,758.551 737.243,758.551 	"/>
	<polyline fill="#32333A" points="737.243,758.551 737.243,762.789 740.21,762.789 	"/>
	<polyline fill="#494A52" points="744.699,758.551 744.699,757.27 740.21,757.27 	"/>
	<polyline fill="#393B41" points="740.21,757.27 740.21,758.551 744.699,758.551 	"/>
	<polygon fill="#32333A" points="737.243,753.584 731.834,760.295 737.243,760.295 	"/>
	<polygon fill="#32333A" points="740.21,750.855 737.243,753.584 740.21,753.584 	"/>
	<polygon fill="#272731" points="740.01,762.789 743.375,758.551 740.21,758.551 	"/>
	<polyline fill="#494A52" points="740.01,762.789 737.243,765.285 737.243,762.789 740.21,762.789 	"/>
	<polyline fill="#393B41" points="751.253,770.199 751.253,760.668 756.483,760.668 	"/>
	<polyline fill="#32333A" points="756.483,760.668 756.483,770.199 751.253,770.199 	"/>
	<polyline fill="#32333A" points="751.253,769.732 747.045,769.732 747.045,764.279 	"/>
	<polyline fill="#272731" points="747.045,764.279 751.253,764.279 751.253,769.732 	"/>
	<polyline fill="#32333A" points="802.418,745.725 785.943,745.725 785.943,740.154 	"/>
	<polyline fill="#383A40" points="785.943,740.154 802.418,740.154 802.418,745.725 	"/>
	<polyline fill="#494A52" points="797.848,762.641 797.848,745.725 802.418,745.725 	"/>
	<polyline fill="#46474E" points="802.418,745.725 802.418,762.641 797.848,762.641 	"/>
	<polyline fill="#403F48" points="791.716,728.369 785.943,728.369 785.943,740.154 	"/>
	<polyline fill="#42414D" points="785.943,740.154 791.716,740.154 791.716,728.369 	"/>
	<polyline fill="#413F47" points="787.325,766.367 783.418,766.367 785.943,745.725 	"/>
	<polyline fill="#3F4147" points="785.943,745.725 791.716,745.725 787.325,766.367 	"/>
	<polyline fill="#32333A" points="800.734,734.262 806.386,734.33 802.418,740.154 	"/>
	<polyline fill="#46474E" points="802.418,740.154 796.727,740.154 800.734,734.262 	"/>
	<polyline fill="#403F48" points="806.386,734.33 806.896,721.275 800.133,720.432 	"/>
	<polyline fill="#4D4E55" points="800.133,720.432 800.734,734.262 806.386,734.33 	"/>
	<polyline fill="#383A40" points="800.528,729.533 791.716,728.369 791.716,721.516 	"/>
	<polyline fill="#494A52" points="791.716,721.516 800.133,720.432 800.528,729.533 	"/>
	<polyline fill="#413F47" points="791.716,728.969 791.716,721.516 785.943,721.516 	"/>
	<polyline fill="#1F2026" points="785.943,721.516 785.943,728.969 791.716,728.969 	"/>
	<polygon fill="#6B2E31" points="822.058,866.049 814.2,843.32 822.058,843.32 	"/>
	<polygon fill="#713933" points="814.2,843.32 814.2,866.049 822.058,866.049 	"/>
	<polygon fill="#85352F" points="814.2,890.658 822.058,866.049 814.2,866.049 	"/>
	<polygon fill="#98302C" points="822.058,866.049 822.058,890.658 814.2,890.658 	"/>
	<polygon fill="#40201E" points="889.413,890.658 884.183,875.848 881.839,890.658 	"/>
	<polygon fill="#3F281F" points="881.839,890.658 878.051,876.15 884.183,875.848 	"/>
	<polygon fill="#3D1C14" points="884.183,875.848 879.433,865.746 878.051,876.15 	"/>
	<polygon fill="#662224" points="879.433,865.746 875.284,866.529 878.051,876.15 	"/>
	<polygon fill="#5F2E21" points="827.908,850.898 827.908,860.457 839.331,850.898 	"/>
	<polygon fill="#573A34" points="834.002,864.285 834.002,872.061 837.35,872.061 	"/>
	<polygon fill="#542A27" points="837.35,872.061 845.585,866.049 834.002,864.285 	"/>
	<polygon fill="#4A2E28" points="834.002,864.285 843.21,858.625 845.585,866.049 	"/>
	<polygon fill="#592E2C" points="843.104,858.688 850.914,856.832 850.914,866.049 	"/>
	<polygon fill="#4A2922" points="843.104,858.688 845.585,866.049 850.914,866.26 	"/>
	<polygon fill="#473B39" points="850.914,856.832 862.57,863.346 856.742,872.213 	"/>
	<polygon fill="#5B3229" points="856.742,872.213 850.914,866.26 850.914,856.832 	"/>
	<polygon fill="#522F30" points="856.742,872.213 845.585,885.469 850.914,866.26 	"/>
	<polygon fill="#4C2F31" points="850.914,866.26 839.793,885.469 845.585,885.469 	"/>
	<polygon fill="#613932" points="839.793,885.469 837.648,890.658 847.869,890.658 	"/>
	<polygon fill="#402D25" points="845.585,885.469 847.869,890.658 839.793,885.469 	"/>
	<line fill="none" x1="1116.334" y1="890.658" x2="1149.039" y2="890.658"/>
	<path fill="#0A0D0F" d="M1186.396,854.355"/>
	<polygon fill="#773826" points="712.474,890.658 717.524,890.658 716,879.758 	"/>
	<polygon fill="#BB5052" points="717.524,890.658 720.49,880.879 715.895,880.096 	"/>
	<polygon fill="#A33432" points="726.503,885.207 731.952,885.207 728.668,879.117 	"/>
	<polygon fill="#973D32" points="728.668,879.117 726.503,875.99 726.503,885.207 	"/>
	<polygon fill="#8E3B30" points="726.503,875.99 718.192,876.311 722.348,881.52 	"/>
	<polygon fill="#8A3A2C" points="722.348,881.52 726.503,881.52 726.503,875.99 	"/>
	<polygon fill="#8A372E" points="718.192,876.311 715.895,880.096 720.49,880.879 	"/>
	<polygon fill="#8A372E" points="722.348,881.52 720.49,880.879 718.192,876.311 	"/>
	<polygon fill="#6B4032" points="733.559,890.658 733.559,880.096 737.725,890.658 	"/>
	<polygon fill="#87382D" points="733.559,880.096 746.783,881.52 737.725,885.375 	"/>
	<polygon fill="#85352F" points="737.725,885.375 737.725,890.658 733.559,880.096 	"/>
	<polygon fill="#85352F" points="751.253,890.658 760.092,890.658 746.783,881.52 	"/>
	<polygon fill="#A6322C" points="751.253,890.658 737.725,885.375 746.783,881.52 	"/>
	<polygon fill="#D9695D" points="744.488,817.23 748.229,821.881 731.952,838.393 	"/>
	<polygon fill="#94453A" points="744.488,817.23 730.753,839.834 739.09,817.23 	"/>
	<polygon fill="#D96965" points="735.644,834.652 723.536,854.686 730.753,839.834 	"/>
	<polygon fill="#C95F54" points="730.753,839.834 723.536,854.686 730.753,831.498 	"/>
	<polygon fill="#AF4940" points="730.753,831.498 739.09,817.23 730.753,839.834 	"/>
	<polygon fill="#773E34" points="720.49,814.105 720.49,824.084 725.34,827.813 	"/>
	<polygon fill="#942F2C" points="725.34,827.813 731.952,825.406 728.647,814.105 	"/>
	<polygon fill="#474A38" points="728.647,814.105 720.49,814.105 725.34,827.813 	"/>
	<polygon fill="#683332" points="720.49,816.389 707.183,816.389 720.49,824.084 	"/>
	<polygon fill="#704138" points="720.49,824.084 707.183,824.084 707.183,816.389 	"/>
	<polygon fill="#79362B" points="707.183,824.084 711.832,833.902 715,831.498 	"/>
	<polygon fill="#AE585C" points="715,831.498 715,824.084 707.183,824.084 	"/>
	<polygon fill="#772B25" points="715,831.498 711.832,833.902 722.914,845.447 	"/>
	<polygon fill="#9A393B" points="715,831.498 725.34,840.637 722.914,845.447 	"/>
	<polygon fill="#832F29" points="709.107,876.311 712.474,870.938 702.854,859.076 	"/>
	<polygon fill="#70433F" points="712.474,870.938 703.978,852.822 702.854,859.076 	"/>
	<polygon fill="#B85F62" points="709.889,865.422 715,853.783 711.092,851.061 	"/>
	<polygon fill="#81453E" points="711.092,851.061 706.228,857.619 709.889,865.422 	"/>
	<polygon fill="#9E3D41" points="715,853.783 720.17,854.686 720.17,847.051 	"/>
	<polygon fill="#62423A" points="715,853.783 705.098,841.279 720.17,847.051 	"/>
	<polygon fill="#72423F" points="705.098,841.279 703.978,852.822 700.448,840.637 	"/>
	<polygon fill="#9A5655" points="700.448,840.637 702.854,859.076 703.978,852.822 	"/>
	<polygon fill="#734440" points="705.098,841.279 715,853.783 711.092,851.061 	"/>
	<polygon fill="#7E2B21" points="700.448,808.572 693.716,808.572 695.881,820.957 	"/>
	<polygon fill="#9F3B39" points="700.448,808.572 702.854,827.813 695.881,820.957 	"/>
	<polygon fill="#9B322B" points="695.881,820.957 703.978,836.471 702.854,827.813 	"/>
	<polygon fill="#515059" points="812.997,562.313 822.779,546.439 821.337,583.957 	"/>
	<polygon fill="#17191F" points="821.337,583.957 840.094,596.822 828.15,625.08 	"/>
	<polygon fill="#191920" points="828.15,625.08 808.756,603.17 821.337,583.957 	"/>
	<polygon fill="#16171A" points="840.094,596.822 873.602,591.975 865.186,626.027 	"/>
	<polygon fill="#18191D" points="865.186,626.027 828.15,625.08 840.094,596.822 	"/>
	<polygon fill="#151418" points="865.186,626.027 873.602,591.975 920.992,592.979 	"/>
	<polygon fill="#161519" points="873.602,591.975 920.255,568.406 920.992,592.979 	"/>
	<polygon fill="#19181B" points="920.255,568.406 959.214,538.904 920.992,592.979 	"/>
	<polygon fill="#17161B" points="920.992,592.979 980.77,545.209 959.214,538.904 	"/>
	<polygon fill="#11161B" points="980.77,545.209 959.214,538.904 1007.475,501.547 	"/>
	<polygon fill="#17181C" points="1007.475,501.547 980.77,545.209 995.286,533.135 	"/>
	<path fill="none" stroke="#515059" stroke-width="0.25" stroke-miterlimit="10" d="M995.286,533.135"/>
	<polygon fill="#181B24" points="1007.475,501.547 1032.805,506.52 995.286,533.135 	"/>
	<polygon fill="#212733" points="1032.805,506.52 1051.806,492.09 1034.73,483.432 	"/>
	<polygon fill="#181E2B" points="1034.73,483.432 1007.475,501.547 1032.805,506.52 	"/>
	<path fill="#191920" d="M1034.73,483.432"/>
	<polygon fill="#232525" points="985.396,513.012 1034.73,483.432 989.03,515.828 	"/>
	<polygon fill="#474E54" points="985.396,513.012 989.03,515.828 959.214,538.904 	"/>
	<polygon fill="#838E97" points="985.396,513.012 947.192,534.176 959.214,538.904 	"/>
	<polygon fill="#64777B" points="959.214,538.904 920.255,568.406 913.281,554.109 	"/>
	<polygon fill="#7F8984" points="947.192,534.176 959.214,538.904 913.281,554.109 	"/>
	<polygon fill="#697176" points="913.281,554.109 920.255,568.406 873.602,591.975 	"/>
	<polygon fill="#6A7275" points="913.281,554.109 872.399,574.096 873.602,591.975 	"/>
	<polygon fill="#5A6468" points="872.399,574.096 840.094,574.096 840.094,596.822 	"/>
	<polygon fill="#6F767C" points="873.602,591.975 840.094,596.822 872.399,574.096 	"/>
	<path fill="none" stroke="#191920" stroke-width="0.25" stroke-miterlimit="10" d="M840.094,574.096"/>
	<polygon fill="#808681" points="822.779,546.439 840.094,574.096 840.094,596.822 	"/>
	<polygon fill="#6A7C80" points="840.094,596.822 821.337,583.957 830.715,569.531 	"/>
	<polygon fill="#929798" points="830.715,569.531 822.779,546.439 821.337,583.957 	"/>
	<polygon fill="#17161B" points="920.992,592.979 928.593,588.605 980.77,545.209 	"/>
	<polygon fill="#9A7173" points="1034.73,483.432 1007.475,482.791 985.396,513.012 	"/>
	<polygon fill="#AF7767" points="1007.475,482.791 985.396,458.582 985.396,513.012 	"/>
	<polygon fill="#7E5353" points="985.396,458.582 975.567,429.243 968.997,464.033 	"/>
	<polygon fill="#6C5C53" points="975.567,429.243 975.567,389.963 962.905,435.175 	"/>
	<polygon fill="#7B5553" points="962.905,435.175 968.997,464.033 975.567,429.243 	"/>
	<polygon fill="#9A5C51" points="968.997,464.033 985.396,513.012 985.396,458.582 	"/>
	<polygon fill="#A96C5A" points="985.396,513.012 964.747,511.809 968.997,464.033 	"/>
	<polygon fill="#A76555" points="964.747,511.809 947.192,470.686 968.997,464.033 	"/>
	<polygon fill="#96564C" points="947.192,470.686 962.905,435.175 968.997,464.033 	"/>
	<polygon fill="#71494C" points="975.567,389.963 978.214,367.998 962.905,374.01 	"/>
	<polygon fill="#693A36" points="952.482,363.188 962.905,374.01 957.694,395.654 	"/>
	<polygon fill="#704B42" points="952.482,363.188 936.61,410.805 957.694,395.654 	"/>
	<polygon fill="#87554B" points="962.905,374.01 957.694,395.654 975.567,389.963 	"/>
	<polygon fill="#89534F" points="975.567,389.963 962.905,435.175 957.694,395.654 	"/>
	<polygon fill="#724135" points="950.777,400.624 941.661,437.74 936.61,410.805 	"/>
	<polygon fill="#73382B" points="941.867,436.892 922.182,456.018 919.533,442.549 	"/>
	<polygon fill="#67342A" points="936.61,410.805 919.533,442.549 941.867,436.892 	"/>
	<polygon fill="#703025" points="922.182,456.018 898.854,478.141 895.245,467.08 	"/>
	<polygon fill="#5E2820" points="919.533,442.549 894.885,467.318 922.182,456.018 	"/>
	<polygon fill="#66281C" points="898.854,478.141 885.627,493.533 872.642,476.699 	"/>
	<polygon fill="#5E251C" points="895.245,467.08 873.853,476.766 898.854,478.141 	"/>
	<polygon fill="#724039" points="936.61,391.567 916.891,426.677 936.61,410.805 936.61,391.567 936.61,410.805 	"/>
	<polygon fill="#552720" points="916.891,426.677 919.533,442.549 936.61,410.805 	"/>
	<polygon fill="#5A2B23" points="916.891,426.677 889.954,452.93 919.533,442.549 	"/>
	<polygon fill="#52231D" points="895.245,467.08 889.954,452.93 919.533,442.549 	"/>
	<polygon fill="#471B15" points="889.954,452.93 872.642,476.699 895.245,467.08 	"/>
	<polygon fill="#4F211A" points="889.954,452.93 856.767,469.482 872.642,476.699 	"/>
	<polygon fill="#6A2E20" points="885.627,493.533 850.273,497.902 872.642,476.699 	"/>
	<polygon fill="#34140E" points="856.767,469.482 857.956,490.617 872.642,476.699 	"/>
	<polygon fill="#955749" points="962.905,435.175 941.867,436.892 957.694,395.654 	"/>
	<polygon fill="#885149" points="957.694,395.654 950.777,400.624 941.867,436.892 	"/>
	<polygon fill="#9B5A4A" points="962.905,435.175 941.867,436.892 947.192,470.686 	"/>
	<polygon fill="#BD9683" points="985.396,513.012 922.182,548.877 964.747,511.809 	"/>
	<polygon fill="#BD8560" points="964.747,511.809 939.064,534.176 934.446,494.975 	"/>
	<polygon fill="#B06F57" points="964.747,511.809 947.192,470.686 934.446,494.975 	"/>
	<polygon fill="#AA664C" points="934.446,494.975 941.867,436.892 947.192,470.686 	"/>
	<polygon fill="#3C1A12" points="850.273,497.902 817.889,497.902 857.956,490.617 	"/>
	<polygon fill="#270F0C" points="856.767,469.482 831.437,478.141 857.956,490.617 	"/>
	<polygon fill="#180F0D" points="831.437,478.141 800.493,483.672 817.889,497.902 	"/>
	<polygon fill="#1B0E0A" points="857.956,490.617 817.889,497.902 831.437,478.141 	"/>
	<polygon fill="#1A0E0E" points="817.889,497.902 802.657,498.582 785.102,482.109 	"/>
	<polygon fill="#181714" points="802.657,498.582 785.102,494.975 785.102,482.109 	"/>
	<polygon fill="#2B221E" points="785.102,494.975 771.875,482.109 785.102,482.109 	"/>
	<polygon fill="#1E130E" points="800.493,483.672 785.102,482.109 817.889,497.902 	"/>
	<polygon fill="#C08D67" points="898.612,513.895 939.064,534.176 934.446,494.975 	"/>
	<polygon fill="#9D5544" points="941.867,436.892 934.446,494.975 921.819,456.258 	"/>
	<polygon fill="#9C4E38" points="921.819,456.258 898.854,478.141 898.612,513.895 	"/>
	<polygon fill="#B46F52" points="934.446,494.975 898.612,513.895 921.819,456.258 	"/>
	<polygon fill="#8F452E" points="898.854,478.141 885.627,493.533 873.362,530.344 	"/>
	<polygon fill="#944631" points="898.612,513.895 873.362,530.344 898.854,478.141 	"/>
	<polygon fill="#B7774C" points="898.612,513.895 921.819,525.959 873.362,530.344 	"/>
	<polygon fill="#C1885E" points="920.992,525.529 939.064,534.176 873.362,530.344 	"/>
	<polygon fill="#C08859" points="939.064,534.176 913.281,554.109 873.362,530.344 	"/>
	<polygon fill="#AF6A45" points="873.362,529.852 862.299,545.209 888.059,539.094 	"/>
	<polygon fill="#A45739" points="862.299,545.209 837.923,548.877 844.696,519.986 	"/>
	<polygon fill="#9C5537" points="837.923,548.877 823.82,527.441 844.696,519.986 	"/>
	<polygon fill="#A25637" points="844.696,519.986 879.81,510.992 862.299,545.209 	"/>
	<polygon fill="#A6613F" points="879.81,510.992 873.546,529.969 862.299,545.209 	"/>
	<polygon fill="#7B3726" points="844.696,519.986 850.273,497.902 879.81,510.992 	"/>
	<polygon fill="#7E3A25" points="885.627,493.533 850.273,497.902 879.81,510.992 	"/>
	<polygon fill="#512315" points="850.273,497.902 817.889,497.902 837.923,508.943 	"/>
	<polygon fill="#823C26" points="837.923,508.943 844.696,519.986 850.273,497.902 	"/>
	<polygon fill="#935038" points="817.889,497.902 817.889,519.264 837.923,508.943 	"/>
	<polygon fill="#AC704E" points="817.889,519.264 844.696,519.986 823.82,527.441 	"/>
	<polygon fill="#A96043" points="817.889,519.264 837.923,508.943 844.696,519.986 	"/>
	<polygon fill="#A37461" points="817.889,497.902 802.657,498.582 817.889,519.264 	"/>
	<polygon fill="#B38562" points="811.916,511.154 822.779,546.439 823.82,527.441 	"/>
	<polygon fill="#B07A53" points="822.779,546.439 837.923,548.877 823.82,527.441 	"/>
	<polygon fill="#CAAA7B" points="822.779,546.439 840.094,574.096 837.923,548.877 	"/>
	<polygon fill="#BB885B" points="862.299,545.209 840.094,574.096 837.923,548.877 	"/>
	<polygon fill="#C08C5A" points="888.059,539.094 872.399,574.096 862.299,545.209 	"/>
	<polygon fill="#C49967" points="888.059,539.094 913.281,554.109 872.399,574.096 	"/>
	<polygon fill="#B89469" points="862.299,545.209 872.399,574.096 840.094,574.096 	"/>
	<polygon fill="#703025" points="895.245,467.08 873.853,476.766 872.642,476.699 	"/>
	<polygon fill="#AD9784" points="939.064,534.176 922.182,548.877 913.281,554.109 	"/>
	<polyline fill="#C1885E" points="898.612,513.895 920.817,525.529 939.064,534.176 	"/>
	<polygon fill="#7E3F31" points="831.437,478.141 831.437,473.572 804.82,475.857 	"/>
	<polygon fill="#743C2E" points="804.82,475.857 800.493,483.672 831.437,478.141 	"/>
	<polygon fill="#9F5643" points="804.82,475.857 785.864,475.135 785.102,482.109 	"/>
	<polygon fill="#834935" points="804.82,475.857 800.493,483.672 785.102,482.109 	"/>
	<polygon fill="#A96149" points="785.864,475.135 764.299,475.857 785.102,482.109 	"/>
	<polygon fill="#95604E" points="771.875,482.109 764.299,475.857 784.627,481.967 	"/>
	<polygon fill="#C8966D" points="788.791,459.064 785.864,475.135 775.002,460.986 	"/>
	<polygon fill="#C7886A" points="788.791,459.064 807.397,464.814 785.864,475.135 	"/>
	<polygon fill="#B46653" points="807.397,464.814 804.82,475.857 831.052,473.605 	"/>
	<polygon fill="#BA6F57" points="807.397,464.814 804.82,475.857 785.864,475.135 	"/>
	<polygon fill="#C1835F" points="775.002,460.986 764.299,475.857 785.864,475.135 	"/>
	<polygon fill="#BD8F72" points="746.463,416.272 754.8,424.754 745.157,445.315 	"/>
	<polygon fill="#AE7D64" points="736.852,424.521 745.157,445.315 746.463,416.272 	"/>
	<polygon fill="#B47961" points="754.8,424.754 766.186,430.525 745.157,445.315 	"/>
	<polygon fill="#A25E42" points="755.673,437.92 757.365,447.199 766.186,437.499 	"/>
	<polygon fill="#903C2B" points="766.186,430.525 766.186,437.499 755.673,437.92 	"/>
	<polygon fill="#AB664A" points="757.365,447.199 767.906,446.037 766.186,437.499 	"/>
	<polygon fill="#B88569" points="755.673,437.92 759.611,459.545 745.157,445.315 	"/>
	<polygon fill="#B49477" points="745.157,445.315 758.087,469.887 759.611,459.545 	"/>
	<polygon fill="#C28F6E" points="767.906,446.037 759.611,459.545 757.365,447.225 	"/>
	<polygon fill="#CC9677" points="775.002,460.986 759.611,459.545 767.906,446.037 	"/>
	<polygon fill="#C08165" points="775.002,460.986 764.299,475.857 759.611,459.545 	"/>
	<polygon fill="#AB7C63" points="757.919,469.568 764.299,475.857 759.709,459.883 	"/>
	<polygon fill="#764C48" points="956.17,317.445 952.482,345.072 950.777,312.847 	"/>
	<polygon fill="#583936" points="950.777,312.847 944.238,345.795 952.482,345.072 	"/>
	<polygon fill="#543136" points="952.482,345.072 952.482,358.86 944.238,345.795 	"/>
	<polygon fill="#563436" points="952.482,358.86 952.482,363.188 944.238,345.795 	"/>
	<polygon fill="#4F3335" points="944.238,345.795 940.061,369.37 952.482,363.188 	"/>
	<polygon fill="#4B2E2F" points="952.482,363.188 945.267,384.833 940.061,369.37 	"/>
	<polygon fill="#54332E" points="940.061,369.37 937.132,388.206 945.267,384.833 	"/>
	<polygon fill="#714441" points="937.132,388.206 936.61,391.567 945.267,384.833 	"/>
	<polygon fill="#674139" points="945.267,384.833 936.61,410.805 936.61,391.567 	"/>
	<polygon fill="#7E5D54" points="978.214,367.998 990.96,360.273 979.418,357.738 	"/>
	<polygon fill="#8C645A" points="990.96,360.273 998.334,354.291 989.199,350.844 	"/>
	<polygon fill="#A17968" points="998.334,354.291 1004.426,348.759 997.693,347.154 	"/>
	<polygon fill="#A16A61" points="1004.426,348.759 1009.239,341.543 1002.506,341.543 	"/>
	<polygon fill="#93655B" points="1009.239,341.543 1013.407,333.047 1005.87,334.008 	"/>
	<polygon fill="#A36964" points="1013.407,333.047 1010.681,323.267 1017.253,313.407 	"/>
	<polygon fill="#886157" points="1017.253,313.407 1019.818,295.53 1012.283,304.47 	"/>
	<polygon fill="#A97974" points="1019.818,295.53 1016.054,282.263 1013.407,293.537 	"/>
	<polygon fill="#A56B69" points="1016.054,282.263 1005.87,272.492 1009.64,282.263 	"/>
	<polygon fill="#A16059" points="1005.87,272.492 1005.398,272.424 993.203,270.681 997.875,279.819 	"/>
	<polygon fill="#AD7268" points="993.203,270.681 978.297,281.582 986.959,283.105 	"/>
	<polygon fill="#B27E6F" points="978.297,281.582 962.905,291.792 975.567,295.53 	"/>
	<polygon fill="#956660" points="989.199,350.844 979.418,357.738 990.96,360.273 	"/>
	<polygon fill="#A67C67" points="997.693,347.154 989.199,350.844 998.334,354.291 	"/>
	<polygon fill="#703731" points="980.701,297.615 989.199,297.615 987.112,289.919 	"/>
	<polygon fill="#572624" points="980.701,297.615 981.982,288.216 987.112,289.919 	"/>
	<polygon fill="#70352E" points="981.982,288.216 990.159,279.819 992.403,284.018 	"/>
	<polygon fill="#5A2D23" points="992.403,284.018 987.112,289.919 981.982,288.216 	"/>
	<polygon fill="#763A33" points="992.403,284.018 1002.506,285.591 990.159,279.819 	"/>
	<polygon fill="#794134" points="992.403,284.018 989.199,297.615 987.112,289.919 	"/>
	<polygon fill="#622E25" points="990.159,279.819 1002.506,279.819 1002.506,285.591 	"/>
	<polygon fill="#713131" points="1002.506,279.819 1008.694,279.819 1009.64,282.263 	"/>
	<polygon fill="#A97874" points="1009.64,282.263 1013.407,293.537 1016.054,282.263 	"/>
	<polygon fill="#873B39" points="1002.506,285.591 1008.438,294.729 1009.64,282.263 	"/>
	<polygon fill="#672928" points="1009.64,282.263 1002.506,279.819 1002.506,285.591 	"/>
	<polygon fill="#914541" points="1008.438,294.729 1013.407,293.537 1009.64,282.263 	"/>
	<polygon fill="#A66F68" points="1013.407,293.537 1012.283,304.47 1019.818,295.53 	"/>
	<polygon fill="#95645B" points="1012.283,304.47 1010.681,323.267 1017.253,313.407 	"/>
	<polygon fill="#975149" points="1008.438,294.729 1011.296,316.064 1013.407,293.537 	"/>
	<polygon fill="#A15F53" points="1008.438,294.729 1006.831,321.985 1011.296,316.064 	"/>
	<polygon fill="#844439" points="1006.831,321.985 1002.506,334.008 1010.92,324.132 	"/>
	<polygon fill="#9B554E" points="1011.296,316.064 1010.92,324.132 1006.831,321.985 	"/>
	<polygon fill="#9E6F63" points="1010.92,324.132 1013.407,333.047 1005.87,334.008 	"/>
	<polygon fill="#A57268" points="1005.87,334.008 1002.506,341.543 1009.239,341.543 	"/>
	<polygon fill="#854B40" points="1005.87,334.008 1002.506,334.008 1010.92,324.132 	"/>
	<polygon fill="#8F5145" points="1002.506,334.008 1002.506,341.543 1005.87,334.008 	"/>
	<polygon fill="#816154" points="1002.506,341.543 997.693,347.154 1004.426,348.759 	"/>
	<polygon fill="#7D4339" points="985.75,342.667 979.418,342.667 985.188,347.154 	"/>
	<polygon fill="#82463E" points="979.418,342.667 979.418,346.514 985.188,347.154 	"/>
	<polygon fill="#8E5B55" points="992.403,271.267 978.297,281.582 981.982,270.681 993.203,270.681 	"/>
	<polygon fill="#895C51" points="962.263,276.472 954.244,290.816 962.905,291.792 	"/>
	<polygon fill="#80524B" points="962.263,276.472 981.982,270.681 978.297,281.582 	"/>
	<polygon fill="#965F54" points="978.297,281.582 962.905,291.792 962.263,276.472 	"/>
	<polygon fill="#965E50" points="956.17,317.445 956.813,303.066 966.429,305.953 	"/>
	<polygon fill="#8B5A54" points="954.244,290.816 956.813,303.066 962.905,291.792 	"/>
	<polygon fill="#B27E79" points="1008.694,279.819 997.875,279.819 1005.87,272.492 	"/>
	<polygon fill="#AC6B64" points="988.611,279.819 997.875,279.819 993.203,270.681 	"/>
	<polygon fill="#773932" points="990.159,279.819 988.611,279.819 986.959,283.105 	"/>
	<polygon fill="#AC7067" points="962.844,374.256 952.387,364.471 965.228,351.003 	"/>
	<polygon fill="#975F58" points="965.228,351.003 952.482,345.072 952.387,364.471 	"/>
	<polygon fill="#643229" points="957.184,347.26 957.694,342.667 968.834,342.667 	"/>
	<polygon fill="#7E473F" points="957.184,347.26 970.277,347.154 968.834,342.667 	"/>
	<polygon fill="#9B6657" points="970.277,347.154 965.228,351.003 957.184,347.26 	"/>
	<polygon fill="#AE7670" points="969.238,347.154 979.418,346.514 979.418,357.738 	"/>
	<polygon fill="#AE7D6F" points="965.228,351.003 979.418,357.738 969.678,347.613 	"/>
	<polygon fill="#B57D6E" points="965.228,351.003 964.037,362.628 979.418,357.738 	"/>
	<polygon fill="#93544F" points="985.188,347.154 997.693,347.154 989.199,350.844 	"/>
	<polygon fill="#9C655B" points="989.199,350.844 979.418,357.738 985.188,347.154 	"/>
	<polygon fill="#A3695C" points="1002.506,334.008 992.403,347.154 997.693,347.154 	"/>
	<polygon fill="#8E4E48" points="992.403,284.018 1008.438,294.729 1002.506,285.591 	"/>
	<polygon fill="#AD695E" points="1008.438,294.729 1006.831,321.985 989.199,297.615 	"/>
	<polygon fill="#9B6354" points="992.403,284.018 989.199,297.615 1008.438,294.729 	"/>
	<polygon fill="#66332C" points="978.297,301.863 975.567,318.938 980.701,312.847 	"/>
	<polygon fill="#4F221F" points="978.297,301.863 988.558,313.868 980.701,312.847 	"/>
	<polygon fill="#9E6553" points="980.701,312.847 985.75,320.346 992.403,320.346 	"/>
	<polygon fill="#894B3F" points="992.403,320.346 988.558,313.868 980.701,312.847 	"/>
	<polygon fill="#945849" points="975.567,318.938 985.75,320.346 980.701,312.847 	"/>
	<polygon fill="#985743" points="992.403,320.346 1000.101,330.482 1002.506,316.002 	"/>
	<polygon fill="#9C5C44" points="992.403,320.346 993.142,303.066 1002.506,316.002 	"/>
	<polygon fill="#9A635B" points="980.701,297.615 985.75,305.953 989.199,297.615 	"/>
	<polygon fill="#A16353" points="989.199,297.615 992.403,320.346 993.142,303.066 	"/>
	<polygon fill="#A77160" points="985.75,305.953 992.403,320.346 989.199,297.615 	"/>
	<polygon fill="#955655" points="978.297,301.863 980.701,297.615 985.75,305.953 	"/>
	<polygon fill="#723734" points="985.75,305.953 992.403,320.346 978.297,301.863 	"/>
	<polygon fill="#95574E" points="975.567,295.53 978.297,301.863 978.297,281.582 	"/>
	<polygon fill="#955852" points="978.297,281.582 981.982,288.216 978.297,301.863 	"/>
	<polygon fill="#90534F" points="981.982,288.216 980.701,297.615 978.297,301.863 	"/>
	<polygon fill="#985C4E" points="978.297,301.863 966.429,305.953 975.567,295.53 	"/>
	<path fill="none" stroke="#000000" stroke-width="0.25" stroke-miterlimit="10" d="M1002.506,316.002"/>
	<polygon fill="#BE8F82" points="964.037,362.628 962.844,374.256 979.418,357.738 	"/>
	<polygon fill="#AA7D74" points="979.418,357.738 978.214,367.998 962.905,374.01 	"/>
	<path fill="#955852" d="M1002.506,316.002"/>
	<polygon fill="#A36A56" points="1002.506,316.002 1000.101,330.482 1006.831,321.985 	"/>
	<polygon fill="#93655B" points="1002.506,334.008 1002.506,341.543 997.693,347.154 	"/>
	<polygon fill="#AE7668" points="1006.831,321.985 1000.101,330.482 1002.506,334.008 	"/>
	<polygon fill="#A25F4D" points="992.403,320.346 989.76,335.051 1000.101,330.482 	"/>
	<polygon fill="#AE7668" points="992.403,347.154 1002.506,334.008 1000.101,330.482 	"/>
	<polygon fill="#A56C59" points="1000.101,330.482 992.403,347.154 989.76,335.051 	"/>
	<polygon fill="#844B3D" points="989.76,335.051 981.662,342.667 985.75,342.667 	"/>
	<polygon fill="#905345" points="985.349,347.035 991.359,342.378 989.76,335.051 	"/>
	<polygon fill="#AC7064" points="985.349,347.035 992.403,347.154 991.359,342.378 	"/>
	<polygon fill="#814A3C" points="985.75,342.667 985.349,347.035 989.76,335.051 	"/>
	<polygon fill="#794134" points="978.297,301.863 975.567,318.938 966.429,305.953 	"/>
	<polygon fill="#A56F67" points="956.17,317.445 963.731,338.659 970.277,332.738 	"/>
	<polygon fill="#794538" points="966.429,305.953 970.277,321.985 973.805,321.985 	"/>
	<polygon fill="#8E5148" points="975.567,318.938 973.805,321.985 966.429,305.953 	"/>
	<polygon fill="#B68C78" points="980.661,335.612 981.662,342.667 989.76,335.051 	"/>
	<polygon fill="#A16554" points="989.76,335.051 985.75,320.346 992.403,320.346 	"/>
	<polygon fill="#AB7668" points="985.75,320.346 980.661,335.612 989.76,335.051 	"/>
	<polygon fill="#A3695C" points="980.661,335.612 973.805,336.575 981.662,342.667 	"/>
	<polygon fill="#9B6256" points="973.805,336.575 979.418,342.667 981.287,342.378 	"/>
	<polygon fill="#97574F" points="973.805,336.575 968.768,342.692 979.418,342.837 	"/>
	<polygon fill="#945250" points="979.418,346.514 985.188,347.154 979.418,357.738 	"/>
	<polygon fill="#9F625A" points="968.768,342.692 970.238,347.035 979.418,342.837 	"/>
	<polygon fill="#95544B" points="979.418,342.837 979.418,346.514 970.238,347.035 	"/>
	<polygon fill="#875952" points="956.17,317.445 952.482,345.072 957.694,342.667 	"/>
	<polygon fill="#9C695F" points="963.731,338.659 957.694,342.667 956.17,317.445 	"/>
	<polygon fill="#8D5048" points="973.805,336.575 968.768,342.692 963.731,338.659 	"/>
	<polygon fill="#7C4639" points="963.731,338.659 957.694,342.667 968.768,342.692 	"/>
	<polygon fill="#805048" points="957.694,342.667 957.184,347.26 952.482,345.072 	"/>
	<polygon fill="#192228" points="1005.398,272.424 1000.42,230.8 983,253.18 	"/>
	<polygon fill="#16222D" points="996.331,184.986 990,151.238 965.948,178.733 	"/>
	<polygon fill="#141F27" points="990,151.238 983.428,126.789 955.366,153.963 	"/>
	<polygon fill="#17232D" points="983.428,126.789 968.595,97.69 939.979,114.042 	"/>
	<polygon fill="#1F2833" points="968.595,97.69 935.647,78.209 939.979,114.042 	"/>
	<polygon fill="#202831" points="935.647,78.209 913.764,60.173 906.788,96.126 	"/>
	<polygon fill="#282D37" points="913.764,60.173 896.048,60.173 906.788,96.126 	"/>
	<polygon fill="#30353B" points="896.048,60.173 861.097,38.288 855.806,60.173 	"/>
	<polygon fill="#444751" points="861.097,38.288 838.199,23.138 840.895,60.173 	"/>
	<polygon fill="#32363A" points="838.199,23.138 806.294,12.315 809.831,58.008 	"/>
	<polygon fill="#353439" points="806.294,12.315 785.702,14.48 798.972,44.3 	"/>
	<polygon fill="#242328" points="785.702,14.48 766.824,33.237 798.972,44.3 	"/>
	<polygon fill="#242429" points="766.824,33.237 735.561,56.085 773.317,58.008 	"/>
	<polygon fill="#3E3A3A" points="735.561,56.085 707.424,75.804 731.472,92.88 	"/>
	<polygon fill="#514743" points="707.424,75.804 707.424,61.455 735.561,56.085 	"/>
	<polygon fill="#534F4B" points="707.424,61.455 739.729,41.655 735.561,56.085 	"/>
	<polygon fill="#383433" points="739.729,41.655 766.824,33.237 735.561,56.085 	"/>
	<polygon fill="#29262B" points="739.729,41.655 785.702,14.48 766.824,33.237 	"/>
	<polygon fill="#716762" points="707.424,61.455 695.8,100.575 707.424,75.804 	"/>
	<polygon fill="#393535" points="695.8,100.575 684.898,136.81 704.779,127.269 	"/>
	<polygon fill="#35292B" points="700.21,175.606 707.424,175.606 684.898,136.81 	"/>
	<polygon fill="#493B3B" points="700.21,175.606 710.644,191.239 716.618,175.606 707.424,175.606 	"/>
	<polygon fill="#202126" points="773.317,58.008 798.972,44.3 766.824,33.237 	"/>
	<polygon fill="#2F2F32" points="773.317,58.008 731.472,92.88 735.561,56.085 	"/>
	<polygon fill="#28272C" points="773.317,58.008 782.697,98.01 731.472,92.88 	"/>
	<polygon fill="#352E30" points="731.472,92.88 704.779,127.269 695.8,100.575 	"/>
	<polygon fill="#3F3B3D" points="731.472,92.88 707.424,75.804 695.8,100.575 	"/>
	<polygon fill="#201E1D" points="731.472,92.88 733.956,141.938 704.779,127.269 	"/>
	<polygon fill="#1F1F21" points="782.697,98.01 756.743,125.707 731.472,92.88 	"/>
	<polygon fill="#201D1F" points="756.743,125.707 733.956,141.938 731.472,92.88 	"/>
	<polygon fill="#282123" points="733.956,141.938 704.779,127.269 684.898,136.81 	"/>
	<polygon fill="#231E20" points="733.956,141.938 719.93,166.949 684.898,136.81 	"/>
	<polygon fill="#2B2020" points="719.93,166.949 707.424,175.606 716.618,175.606 	"/>
	<polygon fill="#312729" points="719.93,166.949 684.898,136.81 707.424,175.606 	"/>
	<polygon fill="#2C2C34" points="798.972,44.3 809.831,58.008 806.294,12.315 	"/>
	<polygon fill="#23262F" points="809.831,58.008 840.895,60.173 838.199,23.138 	"/>
	<polygon fill="#333641" points="855.806,60.173 840.895,60.173 861.097,38.288 	"/>
	<polygon fill="#1F1F25" points="855.806,60.173 820.694,100.575 840.895,60.173 	"/>
	<polygon fill="#212128" points="809.831,58.008 820.694,100.575 840.895,60.173 	"/>
	<polygon fill="#33323B" points="798.972,44.3 782.697,98.01 809.831,58.008 	"/>
	<polygon fill="#1C1D21" points="798.972,44.3 773.317,58.008 782.697,98.01 	"/>
	<polygon fill="#1D1E21" points="820.694,100.575 782.697,98.01 809.831,58.008 	"/>
	<polygon fill="#1C1C1E" points="820.694,100.575 813.159,118.852 782.697,98.01 	"/>
	<polygon fill="#1F1A1B" points="756.743,125.707 774.682,121.577 782.697,98.01 	"/>
	<polygon fill="#212021" points="782.697,98.01 813.159,118.852 774.682,121.577 	"/>
	<polygon fill="#565C5F" points="896.048,45.623 903.263,60.173 896.048,60.173 	"/>
	<polygon fill="#6F7677" points="900.475,54.549 913.764,40.451 896.048,45.623 	"/>
	<polygon fill="#252A2C" points="896.048,45.623 887.069,54.549 896.048,60.173 	"/>
	<polygon fill="#252D36" points="896.048,60.173 906.788,96.126 855.806,60.173 	"/>
	<polygon fill="#151A21" points="855.806,60.173 906.788,96.126 852.118,98.01 	"/>
	<polygon fill="#1F1F26" points="852.118,98.01 820.694,100.575 855.806,60.173 	"/>
	<polygon fill="#222936" points="906.788,96.126 939.979,114.042 935.647,78.209 	"/>
	<polygon fill="#17191D" points="852.118,119.813 852.118,98.01 819.491,100.575 	"/>
	<polygon fill="#1E1D1F" points="820.047,100.531 813.159,118.852 852.118,119.813 	"/>
	<polygon fill="#1E2026" points="852.118,119.813 877.771,126.789 906.788,96.126 	"/>
	<polygon fill="#181D25" points="852.118,98.01 852.118,119.813 906.788,96.126 	"/>
	<polygon fill="#1C222E" points="955.366,153.963 903.263,148.993 939.979,114.042 	"/>
	<polygon fill="#142029" points="983.428,126.789 939.979,114.042 955.366,153.963 	"/>
	<polygon fill="#232731" points="903.263,148.993 896.048,136.086 939.979,114.042 	"/>
	<polygon fill="#1E252F" points="939.979,114.042 906.788,96.126 896.048,136.086 	"/>
	<polygon fill="#1D2329" points="896.048,136.086 877.771,126.789 906.788,96.126 	"/>
	<polygon fill="#424249" points="955.366,153.963 899.737,195.487 896.688,168.272 	"/>
	<polygon fill="#2F333D" points="903.263,148.993 896.688,168.272 955.366,153.963 	"/>
	<polygon fill="#1D252E" points="955.366,153.963 965.948,178.733 990,151.238 	"/>
	<polygon fill="#1A232E" points="965.948,178.733 975.567,209.035 996.331,184.986 	"/>
	<polygon fill="#282F3A" points="965.948,178.733 930.631,172.429 955.366,153.963 	"/>
	<polygon fill="#2C313D" points="965.948,178.733 938.212,210.958 975.567,209.035 	"/>
	<polygon fill="#3B3C43" points="938.212,210.958 983.428,253.285 975.567,209.035 	"/>
	<polygon fill="#4B444A" points="938.212,210.958 899.737,195.487 930.631,172.429 	"/>
	<polygon fill="#3C3F45" points="965.948,178.733 938.212,210.958 930.631,172.429 	"/>
	<polygon fill="#574D4E" points="938.212,210.958 926.75,229.236 899.737,195.487 	"/>
	<polygon fill="#4C454A" points="938.212,210.958 983.428,253.285 938.212,247.513 	"/>
	<polygon fill="#574444" points="926.75,229.236 938.212,247.513 938.212,210.958 	"/>
	<polygon fill="#241A1F" points="1005.398,272.424 993.203,270.681 983,253.18 	"/>
	<polygon fill="#514445" points="981.982,270.681 993.203,270.681 982.627,252.537 	"/>
	<polygon fill="#6C5559" points="981.982,270.681 962.263,276.472 982.604,253.18 	"/>
	<polygon fill="#504849" points="938.212,247.513 956.17,268.315 982.604,253.18 	"/>
	<polygon fill="#4A3740" points="956.17,268.315 962.263,276.472 982.604,253.18 	"/>
	<polygon fill="#6E4C48" points="956.17,268.315 954.244,291.363 962.263,276.472 	"/>
	<polygon fill="#5F4C4C" points="938.212,247.513 942.189,288.216 956.17,268.315 	"/>
	<polygon fill="#19252F" points="1000.42,230.8 975.567,209.035 983.428,253.907 	"/>
	<polygon fill="#1F2833" points="996.331,184.986 1000.42,230.8 975.567,209.035 	"/>
</g>
</svg>
